b<svg xmlns="http://www.w3.org/2000/svg" xmlns:xlink="http://www.w3.org/1999/xlink" viewBox="0 0 175.3 180.51"><defs><linearGradient id="a" x1="-49.12" y1="670.37" x2="-50.33" y2="670.34" gradientTransform="matrix(34.48, 0, 0, -279.3, 1858.5, 187271.53)" gradientUnits="userSpaceOnUse"><stop offset="0" stop-color="#57bddb"/><stop offset="1" stop-color="#e598b2"/></linearGradient><linearGradient id="b" x1="-46.24" y1="670.35" x2="-46.67" y2="670.43" gradientTransform="matrix(189.35, 0, 0, -287.67, 8893.25, 192884.2)" xlink:href="#a"/><linearGradient id="c" x1="-46.41" y1="665.5" x2="-46.23" y2="664.08" gradientTransform="matrix(222.55, 0, 0, -29.41, 10441.86, 19566.39)" xlink:href="#a"/><linearGradient id="d" x1="13.15" y1="127.66" x2="188.46" y2="127.66" gradientTransform="matrix(1, 0, 0, 1, 0, 0)" xlink:href="#a"/></defs><path d="M83.87,19.77c17.4-.51,32.47,11.94,34.74,28.27C121.1,65.9,107.4,82,90.55,84.54c-21,3.2-41.31-15.31-39.48-35.4C52.45,34,66.19,20.29,83.87,19.77Z" transform="translate(-13.15 -8.84)" fill="#f3b062" opacity="0.5" style="isolation:isolate"/><path d="M43.66,48.3c.53,8,8.52,14.48,14.15,19.27.4.34,1-.25.57-.6C52.91,62.33,45,56,44.48,48.28,44.44,47.75,43.62,47.77,43.66,48.3Z" transform="translate(-13.15 -8.84)" fill="#47a0c5"/><path d="M52.47,61.91c-2.55-5.15-.73-10.55,1.11-15.59l-.62.1c2.06,4.46.5,11.2-1.11,15.59-.15.41.51.57.66.16,1.67-4.54,3.17-11.48,1-16.11-.13-.3-.53-.14-.61.1C51,51.42,49.26,57,51.89,62.27c.2.39.77,0,.58-.36Z" transform="translate(-13.15 -8.84)" fill="#47a0c5"/><path d="M48.28,57.61c-5.72-.15-9.67-4.32-13.24-8.31-.07.2-.15.4-.22.59,4.9.28,10.14,4.84,13.24,8.3.29.33.76-.17.47-.49-3.24-3.62-8.63-8.2-13.73-8.49-.32,0-.4.39-.22.59,3.71,4.14,7.8,8.33,13.72,8.49.44,0,.42-.67,0-.68Z" transform="translate(-13.15 -8.84)" fill="#47a0c5"/><path d="M44.66,49.72c-2.06-4.8-4.13-10-1.81-15.09l-.71,0c2.47,4.71,2.11,9.89,1.64,15-.05.53.77.5.82,0,.49-5.3.78-10.57-1.77-15.42a.41.41,0,0,0-.57-.13.47.47,0,0,0-.13.15c-2.41,5.32-.42,10.67,1.75,15.72.2.48,1,.25.78-.24Z" transform="translate(-13.15 -8.84)" fill="#47a0c5"/><path d="M159.62,53.49a6.91,6.91,0,0,1-2.17-.22,9.31,9.31,0,0,1-4.94-3.86l-.16-.23a3.79,3.79,0,0,0-3.46-2l-.31,0a4,4,0,0,1-2.41-.9,11.47,11.47,0,0,0-2.21-1.5l-.85-.41a7.85,7.85,0,0,1-3.55-2.62,8.4,8.4,0,0,1-.89-4.63,7.1,7.1,0,0,1,1-4.29.25.25,0,0,1,.35,0l0,0a12.06,12.06,0,0,0,5.63,4c-1.23-1.1-2.44-2.24-3.59-3.42-.85-.87-1.78-2-1.46-3.29a3.82,3.82,0,0,1,.89-1.45l.33-.4a10.65,10.65,0,0,0,1.37-2.74,10.62,10.62,0,0,1,1.51-3,5.54,5.54,0,0,1,2.2-1.63.26.26,0,0,1,.29.09,63.48,63.48,0,0,0,7.28,8.26,32.44,32.44,0,0,1-4.38-9,1.57,1.57,0,0,1,0-1.13,1.61,1.61,0,0,1,.66-.61l2.16-1.34a.25.25,0,0,1,.34.08s0,0,0,0a67.54,67.54,0,0,0,3.54,7.8,86.87,86.87,0,0,1-.91-9,.25.25,0,0,1,.16-.24,19.06,19.06,0,0,1,6.38-.65,17.13,17.13,0,0,0,6.55-.75.25.25,0,0,1,.32.13.26.26,0,0,1,0,.15c-.32,1.33.59,2.66,1.4,3.84,1.23,1.78,1.56,3.2,1,4.33a3.44,3.44,0,0,1-1.63,1.5,8.33,8.33,0,0,0,1.56-.33.24.24,0,0,1,.3.16,0,0,0,0,1,0,0,61.6,61.6,0,0,1,1,12.5.24.24,0,0,1-.23.24h0l-6.15.27a20.33,20.33,0,0,1-3.31,0c2.5,1.16,5.55,1,8.73.74a.24.24,0,0,1,.26.22c.25,2.16.38,4.24-.7,5.91a8.47,8.47,0,0,1-.64.84c-.17.21-.35.43-.51.66a8.66,8.66,0,0,0-.71,1.26c-.19.38-.4.76-.62,1.12a6.5,6.5,0,0,1-3.3,2.61,2.35,2.35,0,0,1-1,.15,2.59,2.59,0,0,1-.87-.34,45.29,45.29,0,0,1-4.63-2.89,10.36,10.36,0,0,0,4.66,4,.25.25,0,0,1,.13.32A.24.24,0,0,1,164,52,8.85,8.85,0,0,1,159.62,53.49ZM139.86,33.32a7.06,7.06,0,0,0-.7,3.73,8,8,0,0,0,.81,4.37h0a7.5,7.5,0,0,0,3.35,2.44l.86.42a12,12,0,0,1,2.3,1.55,3.52,3.52,0,0,0,2.16.8l.32,0a4.25,4.25,0,0,1,3.79,2.23l.16.23a8.8,8.8,0,0,0,4.67,3.67,7.56,7.56,0,0,0,5.74-1,10.86,10.86,0,0,1-5-5,.24.24,0,0,1,.11-.32.25.25,0,0,1,.25,0A45.39,45.39,0,0,0,164.14,50a2.39,2.39,0,0,0,.7.28,1.93,1.93,0,0,0,.79-.13,6,6,0,0,0,3.05-2.41c.21-.35.41-.71.59-1.08a10.69,10.69,0,0,1,.75-1.32c.17-.24.35-.46.54-.69a7.81,7.81,0,0,0,.6-.79c1-1.48.87-3.37.66-5.36-3.74.32-7.32.41-10.08-1.58a.24.24,0,0,1-.06-.34.25.25,0,0,1,.27-.09,13.78,13.78,0,0,0,4.62.31l5.92-.26a61,61,0,0,0-.93-11.91,8.28,8.28,0,0,1-2.71.3.25.25,0,0,1-.23-.26.24.24,0,0,1,.16-.21,4.24,4.24,0,0,0,2.53-1.75c.47-1,.15-2.22-1-3.84-.75-1.09-1.66-2.41-1.54-3.8a18.58,18.58,0,0,1-6.35.64,19,19,0,0,0-6,.57,84,84,0,0,0,1.12,10.12.23.23,0,0,1-.19.28.24.24,0,0,1-.26-.12,68.42,68.42,0,0,1-4.15-8.84L151,18.89a1.24,1.24,0,0,0-.47.41,1.19,1.19,0,0,0,0,.79c1,3.84,3.24,7.23,5.37,10.5a.24.24,0,0,1-.07.34.24.24,0,0,1-.29,0,63.94,63.94,0,0,1-8.66-9.5,5,5,0,0,0-1.83,1.41,10.06,10.06,0,0,0-1.44,2.83,11.13,11.13,0,0,1-1.44,2.86l-.34.42a3.41,3.41,0,0,0-.79,1.25c-.26,1,.58,2,1.34,2.83,1.39,1.43,2.87,2.81,4.39,4.12a.25.25,0,0,1,0,.34.26.26,0,0,1-.25.08,12.59,12.59,0,0,1-6.74-4.23Z" transform="translate(-13.15 -8.84)" fill="#47a0c5"/><path d="M144.55,54.51a.26.26,0,0,1-.26-.23.27.27,0,0,1,.11-.22c3.77-2.6,6-6.9,8-10.69l9.15-17.47c2-3.9,4.15-7.92,7.16-11.26a.25.25,0,0,1,.35,0,.24.24,0,0,1,0,.34c-3,3.3-5.06,7.3-7.09,11.16L152.83,43.6c-2,3.84-4.29,8.19-8.15,10.86A.29.29,0,0,1,144.55,54.51Z" transform="translate(-13.15 -8.84)" fill="#47a0c5"/><path d="M160.39,28.74a.23.23,0,0,1-.23-.12c-1.14-2.12-1.26-4.56-1.37-6.92a18.37,18.37,0,0,0-.93-6,.24.24,0,0,1,.13-.31.25.25,0,0,1,.32.13,19,19,0,0,1,1,6.13c.11,2.41.22,4.69,1.31,6.71a.25.25,0,0,1-.1.33l-.1,0Z" transform="translate(-13.15 -8.84)" fill="#47a0c5"/><path d="M162.53,24.86a.24.24,0,0,1-.24-.15,10.12,10.12,0,0,1-.47-3.31c0-.49,0-1-.08-1.47a11.39,11.39,0,0,0-1.35-4.29.23.23,0,0,1,.09-.33.24.24,0,0,1,.33.09,11.68,11.68,0,0,1,1.41,4.49c.05.49.06,1,.08,1.49a9.57,9.57,0,0,0,.45,3.15.26.26,0,0,1-.15.32Z" transform="translate(-13.15 -8.84)" fill="#47a0c5"/><path d="M165.13,20.36a.25.25,0,0,1-.26-.23.24.24,0,0,1,.17-.25,6.76,6.76,0,0,1,1.9-.21,4.83,4.83,0,0,0,2.14-.34,2.34,2.34,0,0,0,1.1-1.2.24.24,0,0,1,.31-.13.24.24,0,0,1,.14.32,2.87,2.87,0,0,1-1.33,1.44,5.28,5.28,0,0,1-2.35.4,6.24,6.24,0,0,0-1.77.19Z" transform="translate(-13.15 -8.84)" fill="#47a0c5"/><path d="M165.38,33,165,33c-1,0-2,0-3,0-1.27,0-2.59,0-3.88.06a.23.23,0,0,1-.26-.19v0a.24.24,0,0,1,.22-.26c1.31-.11,2.64-.09,3.93-.07,1,0,2,0,3,0a12.47,12.47,0,0,0,6.45-1.72,4.25,4.25,0,0,0,1-.84.25.25,0,0,1,.35,0,.25.25,0,0,1,0,.33,4.94,4.94,0,0,1-1.1.94A12.76,12.76,0,0,1,165.38,33Z" transform="translate(-13.15 -8.84)" fill="#47a0c5"/><path d="M154.82,39c-3.37.19-6.18-2.17-7.58-3.63a40.19,40.19,0,0,1-2.66-3.17,34.12,34.12,0,0,0-3-3.5.24.24,0,1,1,.34-.34,35.25,35.25,0,0,1,3,3.54A39.11,39.11,0,0,0,147.59,35c1.38,1.44,4.19,3.78,7.47,3.46a.22.22,0,0,1,.26.21h0a.23.23,0,0,1-.22.26h0Z" transform="translate(-13.15 -8.84)" fill="#47a0c5"/><path d="M170.57,45.28l-.1,0a16.86,16.86,0,0,0-5.64-1l-.76,0a25.08,25.08,0,0,1-5.09-.54,7.94,7.94,0,0,1-4.91-3.22.23.23,0,0,1,.08-.33.24.24,0,0,1,.33.07,7.47,7.47,0,0,0,4.62,3,23.89,23.89,0,0,0,5,.53l.76,0a16.91,16.91,0,0,1,5.8,1,.24.24,0,0,1,.14.32A.27.27,0,0,1,170.57,45.28Z" transform="translate(-13.15 -8.84)" fill="#47a0c5"/><path d="M161.76,53.09h-.07a10.58,10.58,0,0,1-5.26-3.89c-.33-.39-.65-.8-1-1.21a19.76,19.76,0,0,0-3.31-3.58.24.24,0,0,1-.05-.34.25.25,0,0,1,.35-.05,20,20,0,0,1,3.39,3.67c.32.4.64.81,1,1.2a10.2,10.2,0,0,0,5,3.73.23.23,0,0,1,.17.29.23.23,0,0,1-.22.19Z" transform="translate(-13.15 -8.84)" fill="#47a0c5"/><path d="M153.39,42.29h0l-4.47-.14c-1.61,0-3.27-.2-4.34-1.31a.24.24,0,0,1,0-.34.26.26,0,0,1,.33,0c1,1,2.5,1.11,4,1.16l4.47.14a.25.25,0,0,1,0,.49Z" transform="translate(-13.15 -8.84)" fill="#47a0c5"/><path d="M164.89,31.13a3.53,3.53,0,0,1-.46,0L162,31a1,1,0,0,1-.51-.13.48.48,0,0,1-.25-.51c.17-.77,2.48-1.65,2.77-1.69h0c.33,0,.67-.05,1-.05s.65,0,1,0a3.87,3.87,0,0,1,1.44.06.52.52,0,0,1,.43.45.56.56,0,0,1-.28.47l-1.69,1.18a2.08,2.08,0,0,1-.56.32A1.56,1.56,0,0,1,164.89,31.13Zm-.85-2c-.41.05-2.3,1-2.35,1.3a1,1,0,0,0,.3.05l2.47.14a2,2,0,0,0,.69-.05,1.5,1.5,0,0,0,.44-.26l1.68-1.18,0,0h0a3.34,3.34,0,0,0-1.26-.05c-.34,0-.67.05-1,.05a7.72,7.72,0,0,0-1,0Z" transform="translate(-13.15 -8.84)" fill="#47a0c5"/><path d="M167.87,27.36h0A3.6,3.6,0,0,1,166.4,27a.23.23,0,0,1-.14-.2h0a.25.25,0,0,1,.07-.34h0A3.68,3.68,0,0,1,169,25.9a.25.25,0,0,1,.19.29.29.29,0,0,1-.08.14l-1.09,1A.24.24,0,0,1,167.87,27.36Zm-1-.68a3.29,3.29,0,0,0,.88.19l.6-.54A3.32,3.32,0,0,0,166.89,26.68Z" transform="translate(-13.15 -8.84)" fill="#47a0c5"/><path d="M155.82,32.49h-.06c-2.78-.54-5.94-1.15-8.48-2.89a2,2,0,0,1-.87-1,1.59,1.59,0,0,1,.32-1.42,4.35,4.35,0,0,1,1.05-.86h0a.24.24,0,0,1,.33.07.24.24,0,0,1,0,.23,21.91,21.91,0,0,0,3.56,2.69l.66.32A10.88,10.88,0,0,1,156,32.09a.24.24,0,0,1,0,.34A.22.22,0,0,1,155.82,32.49Zm-8-5.57a3,3,0,0,0-.65.57,1.11,1.11,0,0,0-.24,1,1.62,1.62,0,0,0,.68.74,20,20,0,0,0,7.52,2.65,13.44,13.44,0,0,0-2.94-1.77l-.66-.32A21.49,21.49,0,0,1,147.77,26.92Zm.27-.18" transform="translate(-13.15 -8.84)" fill="#47a0c5"/><path d="M160.61,42.76h-.16a3.87,3.87,0,0,1-2.41-.41,2.74,2.74,0,0,1-.65-.62c-.5-.65-1.11-1.56-.66-2.07.28-.32,1-.3,2.24-.15l.28,0a15.1,15.1,0,0,1,2.39.4c.1,0,.39.12.87.29s1.11.4,1.26.43a.26.26,0,0,1,.25.24.35.35,0,0,1-.06.17h0a4.91,4.91,0,0,1-1.57,1.33A4.73,4.73,0,0,1,160.61,42.76Zm-3.16-2.85a.58.58,0,0,0-.36.09s-.22.27.69,1.43a2.42,2.42,0,0,0,.53.53,3.41,3.41,0,0,0,2.11.32,4.75,4.75,0,0,0,1.75-.31,3.87,3.87,0,0,0,1.16-.93l-1-.34-.82-.28a15.06,15.06,0,0,0-2.31-.39l-.3,0A9,9,0,0,0,157.45,39.91Z" transform="translate(-13.15 -8.84)" fill="#47a0c5"/><path d="M180.23,48.73c-.34,4.37-3.6,7.22-6.84,9.76h0l-.14.11-.09,0A10.69,10.69,0,0,1,171,60.47c3.91-.37,7.84-.57,11.44,1.3a.31.31,0,0,1,.15.42.28.28,0,0,1-.15.15c-4.05,1.86-8.19.33-12-1.3a.24.24,0,0,1-.15-.13,22.1,22.1,0,0,1-3.57,1.54l-.58.2h0l.08.13a28.29,28.29,0,0,1,12.69,6.49.33.33,0,0,1,0,.45.3.3,0,0,1-.28.1c-4.62-.47-10.75-2.58-13.11-6.93,0,0,0,0,0-.06a45.44,45.44,0,0,1-6.62,1.55l0,0,.08.13a28.34,28.34,0,0,1,12.69,6.49.32.32,0,0,1,0,.45.33.33,0,0,1-.28.11c-4.61-.48-10.75-2.59-13.11-6.94a.27.27,0,0,1,0-.2c-.65.1-1.31.18-2,.25a.31.31,0,0,1-.08-.62c1.14-.12,2.27-.28,3.4-.48v0c1.29-4.24,4.09-10.23,8.24-12.37.27-.14.47.18.4.41-1.37,4.43-3,9.07-7,11.65a42.47,42.47,0,0,0,4.39-1.18c.75-.24,1.5-.51,2.23-.8v0c.58-4.12,1.4-8.48,5.08-11a.31.31,0,0,1,.44.08.33.33,0,0,1,.05.22c-.25,4-2.37,7.2-4.67,10.32A11,11,0,0,0,173,57.81c1.58-3.61,3.31-7.16,6.7-9.38a.31.31,0,0,1,.44.08A.29.29,0,0,1,180.23,48.73Z" transform="translate(-13.15 -8.84)" fill="#47a0c5"/><path d="M148.13,15l7.42-2V70.07s-4.81,2.78-7.42,3Z" transform="translate(-13.15 -8.84)" fill="url(#a)"/><path d="M107.72,11.2,148.43,15V72.7a.35.35,0,0,1-.34.35H148l-40.31-6.12Z" transform="translate(-13.15 -8.84)" fill="url(#b)"/><path d="M109.68,65.16l36.63,5.49V17l-36.63-3.52Zm36.16,4.94-35.73-5.33V13.94l35.73,3.46Z" transform="translate(-13.15 -8.84)" fill="#fff" opacity="0.64" style="isolation:isolate"/><g opacity="0.3"><path d="M119.86,61.39C122,56.18,119.21,54,121,47.74c3.51-12.59,17.68-12.85,20.46-24.07a16.93,16.93,0,0,0-.51-9.34l7.53.71V72.7a.34.34,0,0,1-.33.35H148L114.49,68A15.1,15.1,0,0,0,119.86,61.39Z" transform="translate(-13.15 -8.84)" fill="#fff"/></g><path d="M107.75,11.08a.08.08,0,0,0,0,.11.1.1,0,0,0,.06.05l39.79,3.88a9.66,9.66,0,0,0,4-.47l3.63-1.26a.5.5,0,0,0,.3-.63.51.51,0,0,0-.42-.33L114.6,8.84a.85.85,0,0,0-.23,0L114,9a.37.37,0,0,0-.23.34v.72l-3.86.71-1-.08h0Z" transform="translate(-13.15 -8.84)" fill="url(#c)"/><path d="M113.76,9.39,110,10.76l39.15,3.57a1,1,0,0,0,.38,0L153,13.2a.07.07,0,0,0,.05-.1s0,0-.06,0Z" transform="translate(-13.15 -8.84)" fill="#fff"/><path d="M56.86,165.88c12.72-6.29,30.07-9.26,42.15,7.76,0,0,2,2.21,3.79,0,0,0,7.77-15.09,29.58-12a107.18,107.18,0,0,1,17.36,4.79c10.06,3.63,24.15,4.31,27.61,3.47L168.61,57.85l-5.63,1L161.32,43s-7.92,7.61-31.56,8.94c0,0-23-6-29.91,12.72,0,0-10.07-19.68-35.22-6.12,0,0-14.7,6-30.24,3.47L26.1,169.18S44.14,172.16,56.86,165.88Z" transform="translate(-13.15 -8.84)" fill="#e598b2"/><path d="M174.34,66.14h-3l10.29,109.32a83.07,83.07,0,0,1-33.05-3.79s-15.48-8.55-22.6-7.93-11.94,2.2-14.89,4-7.87,7.61-9.19,9.1a1.24,1.24,0,0,1-2.07,0s-8.65-12.08-19.33-12.08c0,0-10-1.33-23.24,4.73,0,0-11.95,5.83-23.25,6.08l-14.08-.09L30.35,66.14,27.3,66,13.15,180.35l74.53.09a14.14,14.14,0,0,0,26.25,0l74.53.09Z" transform="translate(-13.15 -8.84)" fill="url(#d)"/><path d="M65,39.43a5.51,5.51,0,0,0-4,.24,3.54,3.54,0,0,0-1.79,1.68c-.55,1.24-.07,2.67-.17,4-.12,1.63-1.09,3.06-1.79,4.54a8.16,8.16,0,0,0-.91,3.7A4.42,4.42,0,0,0,57.88,57a4.21,4.21,0,0,0,4,.46,6.09,6.09,0,0,0,3-2.82,11.71,11.71,0,0,0,1.25-4A21.26,21.26,0,0,1,67,46.18a12.08,12.08,0,0,0,1-3.57,2.79,2.79,0,0,0-1.34-2.25A5.22,5.22,0,0,0,65,39.43Z" transform="translate(-13.15 -8.84)" fill="#004f7f"/><path d="M72,50.87a61,61,0,0,1,13.15-6.19,7.15,7.15,0,0,0,5,2.91,7.42,7.42,0,0,0,5.6-1.67,19.17,19.17,0,0,1,4.77,4.39,9.72,9.72,0,0,1-1.72,13.61,5.35,5.35,0,0,1-3,1.25,2.81,2.81,0,0,1-2.69-1.54,14.29,14.29,0,0,1-7.9,1.63,29.84,29.84,0,0,1-7.76-1.78,9.13,9.13,0,0,1-3.54-1.86,9.91,9.91,0,0,1-2.23-4.53,11.44,11.44,0,0,1-.58-2.94C71.05,53.15,71.16,51.4,72,50.87Z" transform="translate(-13.15 -8.84)" fill="#3b9cfd"/><path d="M114.33,50.85a4.14,4.14,0,0,0,4.52-4.71,9.28,9.28,0,0,1-.28-1.88c.07-1.2,1.12-2.3.85-3.47s-1.62-1.67-2.12-2.73c-.39-.83-.2-1.89-.74-2.64-.88-1.21-2.9-.69-4.07-1.61-.56-.45-.84-1.16-1.39-1.62a2.77,2.77,0,0,0-2.76-.29A8,8,0,0,0,106,33.55a3.22,3.22,0,0,0-3.1,0A2.79,2.79,0,0,0,101.35,36a16.29,16.29,0,0,1,.14,2c-.16,1.26-1.48,2.16-1.58,3.43s1,2.34.85,3.57a13.46,13.46,0,0,1-.7,2A3.34,3.34,0,0,0,101.12,50a7.23,7.23,0,0,0,3,1.6C107.35,52.6,111.12,51.7,114.33,50.85Z" transform="translate(-13.15 -8.84)" fill="#004f7f"/><path d="M115.93,47.61a9.81,9.81,0,0,1,4.5,1.24,6.2,6.2,0,0,1,2.67,4.68,8.1,8.1,0,0,1-1.53,5.24,11.72,11.72,0,0,1-4.23,3.55,11.53,11.53,0,0,1-6,1.38A7.83,7.83,0,0,1,105.85,61a8.92,8.92,0,0,1-1.77-4.18,27.07,27.07,0,0,1-.25-4.59,8.44,8.44,0,0,1,.26-2.46,3,3,0,0,1,1.14-1.65,5.23,5.23,0,0,1,2.19-.44,42.68,42.68,0,0,1,5.42-.26C113.87,47.46,114.9,47.52,115.93,47.61Z" transform="translate(-13.15 -8.84)" fill="#ff7976"/><path d="M105.55,47.84a3.55,3.55,0,0,0-3.06,1,5.68,5.68,0,0,0-1.47,3,15.12,15.12,0,0,0-.15,3.36q.12,3,.47,6a4.55,4.55,0,0,0,.78,2.42,4.44,4.44,0,0,0,2.95,1.22,43,43,0,0,0,8.78.28,10.27,10.27,0,0,1-.11-4.41s-6.32.71-7-.83S105.55,47.84,105.55,47.84Z" transform="translate(-13.15 -8.84)" fill="#ff7976"/><path d="M70.76,62.84s3.56,1.47,3.91,2.21a2.76,2.76,0,0,1,.3,1.84c-.17.21-.25.49-.57.67a1.49,1.49,0,0,1-1.43-.3c-.45-.36-.56-1-1.11-1.34s-2.69-1.55-2.69-1.55Z" transform="translate(-13.15 -8.84)" fill="#ffb387"/><path d="M81.26,59.89A5.74,5.74,0,0,1,82,61.82a2.6,2.6,0,0,1-.42,2,2.77,2.77,0,0,1-1.51,1,8.27,8.27,0,0,1-1.79.22l-2,.1-1.4.08c-.34,0-1.28.25-1.57.09a.89.89,0,0,1-.3-.51l-.3-.79-.6-1.62a18.54,18.54,0,0,1,2.54-1,.8.8,0,0,0,.4-.23.79.79,0,0,0,.09-.64c-.26-1.43-1.32-2.6-1.65-4a4.28,4.28,0,0,1,.22-2.55c.14-.32.28-.6.67-.52a4.25,4.25,0,0,1,1,.53,16,16,0,0,1,3.74,3A15.28,15.28,0,0,1,81.26,59.89Z" transform="translate(-13.15 -8.84)" fill="#bbffd1" style="isolation:isolate"/><path d="M64.2,54a21.54,21.54,0,0,0-3.72,4.67,7.44,7.44,0,0,0-1,2.62,3.33,3.33,0,0,0,.63,2.67A3.44,3.44,0,0,0,62,65a9.86,9.86,0,0,0,2.24.15l5,0c.63,0,1.27,0,1.9,0s1-.41,1.47-.51a5,5,0,0,1,1,0,2,2,0,0,0,1-.22,2,2,0,0,0,.64-.65,4.1,4.1,0,0,0,.72-1.8,5,5,0,0,0,.06-.77,8.29,8.29,0,0,0-1.18-3.78A11.7,11.7,0,0,0,72.15,54a6.8,6.8,0,0,0-4-1.62A5.66,5.66,0,0,0,64.2,54Z" transform="translate(-13.15 -8.84)" fill="#bbffd1" style="isolation:isolate"/><path d="M134.14,39.29a4.67,4.67,0,0,1,2.63,3.14,7.41,7.41,0,0,1-.21,4.17,7.55,7.55,0,0,1-2.83,4,.82.82,0,0,1-.72.19c-.29-.11-.39-.47-.42-.78-.08-.93,0-1.87-.08-2.79-.24-1.78-1.33-3.32-1.95-5-.24-.63-.74-1.67-.19-2.25a3.43,3.43,0,0,1,2.27-1A3.65,3.65,0,0,1,134.14,39.29Z" transform="translate(-13.15 -8.84)" fill="#004f7f"/><path d="M72.64,43.43a6.82,6.82,0,0,1,2.64,5.3,5.67,5.67,0,0,1-3,5,9.72,9.72,0,0,1-4.11.75,13.93,13.93,0,0,1-3-.13,5.16,5.16,0,0,1-2.64-1.25,5.91,5.91,0,0,1-1.5-4.17A7.93,7.93,0,0,1,62.38,44,5,5,0,0,1,66,41.9c.65,0,1.26-.19,1.91-.16a9,9,0,0,1,2.35.44A7.71,7.71,0,0,1,72.64,43.43Z" transform="translate(-13.15 -8.84)" fill="#004f7f"/><path d="M97.28,44.38a16.13,16.13,0,0,0,1.92-4.75,5.46,5.46,0,0,0-1.26-4.79c-.3-.3-.66-.55-1-.85a2.13,2.13,0,0,1-.64-1.1c0-.22,0-.45,0-.67a.75.75,0,0,0-.32-.57.51.51,0,0,0-.67.18c-.52.91-1.65.66-2.69.49a16.32,16.32,0,0,0-3.09-.5,4.85,4.85,0,0,0-3.25,1.65,9.21,9.21,0,0,0-1.8,3.24,17.26,17.26,0,0,0-1,5.6A8.17,8.17,0,0,0,86,43.59a24.67,24.67,0,0,0,5.65,1.76C93.58,45.63,96.35,46.12,97.28,44.38Z" transform="translate(-13.15 -8.84)" fill="#004f7f"/><path d="M97,42.68q-.09.59-.21,1.17c-.64,3.15-2.45,6.6-6,7.18a5.35,5.35,0,0,1-6.34-4.46,14.48,14.48,0,0,1-.14-4.26c.09-1.19.21-2.38.36-3.56A7.38,7.38,0,0,1,85,37a9.76,9.76,0,0,1,.87-1.5A6,6,0,0,1,90.28,33a6.89,6.89,0,0,1,6.12,3.16c0,.17.43.75.52.93a10,10,0,0,1,.39,1,6.65,6.65,0,0,1,0,2.91C97.16,41.56,97.07,42.12,97,42.68Z" transform="translate(-13.15 -8.84)" fill="#ffbd97"/><path d="M131.52,53.34a16,16,0,0,1,5.17,2.91,9.25,9.25,0,0,1,2.41,2.91,5,5,0,0,1,.38,3.69,3.48,3.48,0,0,1-2.68,2.42c-5.83.85-11.54.38-17.43.09a5.43,5.43,0,0,1-2.56-.57,3.44,3.44,0,0,1-1.51-2.63,6.61,6.61,0,0,1,.56-3.06,10.53,10.53,0,0,1,6.07-6.25C124.81,51.9,128.65,52.36,131.52,53.34Z" transform="translate(-13.15 -8.84)" fill="#ffe4a3" style="isolation:isolate"/><path d="M134,48.21c-.07.39-.16.78-.23,1.16-.64,3.16-2.45,6.61-6,7.18a5.34,5.34,0,0,1-6.34-4.46c-.69-3.13-.07-7,2.41-9.23A7.48,7.48,0,0,1,129.32,41C132.66,41.26,134.6,45.19,134,48.21Z" transform="translate(-13.15 -8.84)" fill="#ffbd97"/><path d="M115.63,40.46a16.7,16.7,0,0,1,.17,2.65,11.27,11.27,0,0,1-.2,2.72,8.11,8.11,0,0,1-.44,1.53,7.22,7.22,0,0,1-.61,1.21,5.46,5.46,0,0,1-1.65,1.7,4.94,4.94,0,0,1-4.05.53l-.46-.17a5.58,5.58,0,0,1-1-.57,8.61,8.61,0,0,1-2-2,12.58,12.58,0,0,1-2.29-9.5,5.59,5.59,0,0,1,2.83-3.85,6.45,6.45,0,0,1,6.42.46A8.06,8.06,0,0,1,115.63,40.46Z" transform="translate(-13.15 -8.84)" fill="#ffb387"/><path d="M74.69,52.44a8.86,8.86,0,0,1-.18,1.44c0,.22-.09.43-.15.65s-.17.54-.27.81a6.88,6.88,0,0,1-.58,1.15,5.24,5.24,0,0,1-1.57,1.61,4.64,4.64,0,0,1-3.86.5,3.16,3.16,0,0,1-.43-.16,5,5,0,0,1-1-.54A8.14,8.14,0,0,1,64.79,56a12,12,0,0,1-2.19-9,5.31,5.31,0,0,1,2.7-3.66,6.12,6.12,0,0,1,6.1.43,7.61,7.61,0,0,1,3.13,5.07,15.22,15.22,0,0,1,.17,2.53A11.05,11.05,0,0,1,74.69,52.44Z" transform="translate(-13.15 -8.84)" fill="#ffb387"/><path d="M116.82,40.71a1.31,1.31,0,0,1,1,1.4,2.16,2.16,0,0,1-1,1.5,6.25,6.25,0,0,1-1.69.74,7.67,7.67,0,0,0,.08-1.32,6.91,6.91,0,0,1,.08-1.37A1.53,1.53,0,0,1,116.82,40.71Z" transform="translate(-13.15 -8.84)" fill="#ffb387"/><path d="M102.26,43.85a1.32,1.32,0,0,0-.35,1.66,2.18,2.18,0,0,0,1.47,1,6.3,6.3,0,0,0,1.84,0,7.81,7.81,0,0,1-.57-1.19,6.34,6.34,0,0,0-.59-1.23A1.53,1.53,0,0,0,102.26,43.85Z" transform="translate(-13.15 -8.84)" fill="#ffb387"/><path d="M95.7,46.35a.45.45,0,0,0,.44.11A4.25,4.25,0,0,0,98,45.79a1.36,1.36,0,0,0,.69-.92,1,1,0,0,0-.53-.91,1.47,1.47,0,0,0-1.09-.06,3.08,3.08,0,0,0-1,.52,4.36,4.36,0,0,0-.31.86C95.68,45.65,95.52,46.12,95.7,46.35Z" transform="translate(-13.15 -8.84)" fill="#ffbd97"/><path d="M84.9,44.34c-.09.08-.24.09-.46,0a4.36,4.36,0,0,1-1.66-1.12,1.39,1.39,0,0,1-.44-1.06,1,1,0,0,1,.75-.75,1.5,1.5,0,0,1,1.07.21,3.08,3.08,0,0,1,.81.76,3.75,3.75,0,0,1,.09.91C85.09,43.67,85.13,44.17,84.9,44.34Z" transform="translate(-13.15 -8.84)" fill="#ffbd97"/><path d="M135.63,49a1.23,1.23,0,0,1,.17,1.36,2.1,2.1,0,0,1-1.09.94,6.19,6.19,0,0,1-1.43.32c-1,.14-.32-1.67,0-2.18A1.65,1.65,0,0,1,135.63,49Z" transform="translate(-13.15 -8.84)" fill="#ffbd97"/><path d="M64.55,55.07a4.76,4.76,0,0,1-2-.17,2.22,2.22,0,0,1-1.39-1.35,1.44,1.44,0,0,1,.69-1.7,1.23,1.23,0,0,1,1.51.46A20.45,20.45,0,0,1,64.55,55.07Z" transform="translate(-13.15 -8.84)" fill="#ffb387"/><path d="M103.34,43.73a11.21,11.21,0,0,0,3.61-7c2.44,2.45,5.31,4.2,8.76,4.28a8,8,0,0,0-2.87-6.33,7.38,7.38,0,0,0-6.61-1,5.56,5.56,0,0,0-3,2.25,6.83,6.83,0,0,0-.83,3.5A14.26,14.26,0,0,0,103.34,43.73Z" transform="translate(-13.15 -8.84)" fill="#004f7f"/><path d="M84.37,41.77c.73-1.41,1.58-2.83,2.31-4.24a1.45,1.45,0,0,1,.45-.58c.4-.24.92,0,1.34.18a16.79,16.79,0,0,0,6.74,1.67,1.15,1.15,0,0,1,.69.18,1.07,1.07,0,0,1,.27.72c.15,1.39.39,2.95.55,4.35a2.71,2.71,0,0,0,1-1.41,8.89,8.89,0,0,0,.68-4.49,6.09,6.09,0,0,0-2.09-4A7.5,7.5,0,0,0,93,32.77a7.65,7.65,0,0,0-5.23.59A6.57,6.57,0,0,0,84.92,37,12.61,12.61,0,0,0,84.37,41.77Z" transform="translate(-13.15 -8.84)" fill="#004f7f"/><path d="M62.83,51.85a3.35,3.35,0,0,0,1.7-.31A10,10,0,0,0,69.8,46.4a7.75,7.75,0,0,1,5,4.63,8.64,8.64,0,0,0-1.22-5.69,7,7,0,0,0-4.79-3.06,5.91,5.91,0,0,0-5.25,2,6.28,6.28,0,0,0-1.36,3.65A9.56,9.56,0,0,0,62.83,51.85Z" transform="translate(-13.15 -8.84)" fill="#004f7f"/><path d="M134.79,46.21a3.39,3.39,0,0,1-.91,2.68,7.6,7.6,0,0,0-1.09-3.45,7.25,7.25,0,0,0-1.27-1.82.39.39,0,0,0-.21-.13.46.46,0,0,0-.25.08,16.17,16.17,0,0,1-3.66,2,4.37,4.37,0,0,1-2.9,0,4.81,4.81,0,0,1-2.62-3.39,2.1,2.1,0,0,1,0-1.42.88.88,0,0,1,1.2-.43,2.13,2.13,0,0,1,3.22-2.53,3.68,3.68,0,0,1,1,1.41,1.18,1.18,0,0,1,1-1,2,2,0,0,1,1.42.46,5.87,5.87,0,0,1,1,1.14c.62.81,1.38,1.46,2,2.22A7.29,7.29,0,0,1,134.79,46.21Z" transform="translate(-13.15 -8.84)" fill="#004f7f"/><path d="M136.08,55.48a2.86,2.86,0,0,1,.65,2.41A2.31,2.31,0,0,1,135,59.63a1.21,1.21,0,0,1-1.23-.38,1.64,1.64,0,0,1-.18-1l.09-1.88c0-.34,0-.68,0-1s.07-.68.07-1c0-.09.59,0,.67.07a5.94,5.94,0,0,1,.67.33A4.23,4.23,0,0,1,136.08,55.48Z" transform="translate(-13.15 -8.84)" fill="#ffb387"/><path d="M59,59.56a3.36,3.36,0,0,0,.14,2.95,2.71,2.71,0,0,0,2.55,1.35A1.43,1.43,0,0,0,62.93,63a2,2,0,0,0-.17-1.25L62,59.66c-.14-.38-.23-.77-.36-1.15s-.32-.74-.44-1.13c0-.11-.66.25-.73.32a4.55,4.55,0,0,0-.64.6A5,5,0,0,0,59,59.56Z" transform="translate(-13.15 -8.84)" fill="#ffbd97"/><path d="M135.67,61.34a14,14,0,0,1,.78,4h-3.27c-1.75,0-3.46-.36-3.83-.24s-1.78,1.87-2.86,2-2.45.21-2.39-.26a4.89,4.89,0,0,1,2.45-3.62C128.6,62.1,135.67,61.34,135.67,61.34Z" transform="translate(-13.15 -8.84)" fill="#ffbd97"/><path d="M121,56.13a4.72,4.72,0,0,1-1-2.2c-.07-1,.89-3.59,1.29-3.2s0,2.69,0,2.69,2.62,1.59,2.4,2.32-1.51,5-2.23,6.61-1.43,3.24-3,3.07-2-2.59.13-5.85S121,56.13,121,56.13Z" transform="translate(-13.15 -8.84)" fill="#ffbd97"/><path d="M113.74,60.72a2.21,2.21,0,0,0,1.07-.26c.52-.29,2.57-2,2.92-1.58s-1.26,1.58-1.26,1.58a2.46,2.46,0,0,0,1.31.26c.59-.11,2.08-.7,2.87-.11s.29,2-.53,2.86-6.38,1-6.38,1A8.86,8.86,0,0,1,113.74,60.72Z" transform="translate(-13.15 -8.84)" fill="#ffb387"/><path d="M94.77,52.61a6.85,6.85,0,0,0,1.67-2.33c.47-1.27.25-4.77-.39-4.44s-1,3.31-1,3.31-3.84,1-3.86,2,0,6.77.27,9,.5,4.79,2.56,4.94c3.15.24,4.07-2,2.71-6.85S94.77,52.61,94.77,52.61Z" transform="translate(-13.15 -8.84)" fill="#ffbd97"/><path d="M72.09,62.32s-4.13,1.31-4.62,2A2.67,2.67,0,0,0,66.8,66c.12.23.14.53.41.77a1.55,1.55,0,0,0,1.46,0c.52-.26.75-.85,1.37-1.09s2.95-1,2.95-1Z" transform="translate(-13.15 -8.84)" fill="#ffb387"/><path d="M69,46a5.08,5.08,0,0,1-5.16,4.76A15.22,15.22,0,0,0,69,46Z" transform="translate(-13.15 -8.84)" fill="#577987"/><path d="M68.46,45.7A5.29,5.29,0,0,1,63.23,49c.92-.63,1.77-1.1,2.61-1.64S67.49,46.25,68.46,45.7Z" transform="translate(-13.15 -8.84)" fill="#577987"/><path d="M70.63,45.52A4.87,4.87,0,0,1,75,49.58c-.81-.71-1.45-1.39-2.16-2S71.39,46.28,70.63,45.52Z" transform="translate(-13.15 -8.84)" fill="#577987"/><path d="M65.56,41a5.25,5.25,0,0,0-2.66-.51,2.57,2.57,0,0,0-2,1.26c-.38.68-.08,1.48.09,2.48a6.4,6.4,0,0,1-.38,3c-.67,1.85-1.81,3.36-2.23,5.08a4.44,4.44,0,0,0,.06,2.58,2.92,2.92,0,0,0,1.85,1.84A3,3,0,0,1,58,55a4.71,4.71,0,0,1-.37-2.93c.33-2,1.48-3.6,2-5.27A5.58,5.58,0,0,0,60,44.31c0-.42-.16-.88-.2-1.4a2.57,2.57,0,0,1,.37-1.59A3.07,3.07,0,0,1,62.88,40,5,5,0,0,1,65.56,41Z" transform="translate(-13.15 -8.84)" fill="#577987"/><path d="M86,35.27a4.51,4.51,0,0,1,2-2,5.31,5.31,0,0,1,2.83-.6,5.84,5.84,0,0,1,.73.11l.66.18c.43.13.89.29,1.27.38a2.67,2.67,0,0,0,1.19,0,1.56,1.56,0,0,0,1-.71,1.53,1.53,0,0,1-.82,1.16,2.66,2.66,0,0,1-1.48.28,10.45,10.45,0,0,1-1.36-.22l-.66-.15a4.07,4.07,0,0,0-.61-.08A6.88,6.88,0,0,0,86,35.27Z" transform="translate(-13.15 -8.84)" fill="#577987"/><path d="M89.87,34.12A6.38,6.38,0,0,1,91.43,34a13.72,13.72,0,0,1,1.48.15,6.18,6.18,0,0,0,1.34.08,2.63,2.63,0,0,0,1.32-.46A1.7,1.7,0,0,1,94.45,35a3.32,3.32,0,0,1-1.67.16,9.84,9.84,0,0,1-1.49-.37A6.28,6.28,0,0,1,89.87,34.12Z" transform="translate(-13.15 -8.84)" fill="#577987"/><path d="M96.13,34.43a6.46,6.46,0,0,1,1.27.72,4.47,4.47,0,0,1,1.06,1A2.72,2.72,0,0,1,99,37.63,1.58,1.58,0,0,1,98.4,39a2.58,2.58,0,0,0-.15-1.27,4.09,4.09,0,0,0-.59-1c-.24-.34-.54-.65-.82-1.05A4.87,4.87,0,0,1,96.13,34.43Z" transform="translate(-13.15 -8.84)" fill="#577987"/><path d="M88.3,35.61a31.18,31.18,0,0,0,3.86,1.17,28.83,28.83,0,0,0,4,.56,6.79,6.79,0,0,1-7.85-1.73Z" transform="translate(-13.15 -8.84)" fill="#577987"/><path d="M105.1,34.31a1.65,1.65,0,0,0-2,1.16,1.87,1.87,0,0,0,.16,1.18,3.62,3.62,0,0,1,.33,1.65,3.21,3.21,0,0,1-.78,1.54,8.77,8.77,0,0,0-.88,1.09,4.29,4.29,0,0,0-.21,2.72,5.7,5.7,0,0,1-.6-1.41,2.55,2.55,0,0,1,.11-1.65c.45-1,1.31-1.71,1.36-2.42a2.84,2.84,0,0,0-.23-1.23,2.56,2.56,0,0,1,0-1.73,2,2,0,0,1,1.25-1.16A1.79,1.79,0,0,1,105.1,34.31Z" transform="translate(-13.15 -8.84)" fill="#577987"/><path d="M108.21,36.2a16.72,16.72,0,0,0,3.38,2.51,16.92,16.92,0,0,0,3.91,1.52,6.34,6.34,0,0,1-7.29-4Z" transform="translate(-13.15 -8.84)" fill="#577987"/><path d="M108.68,35.93c1.19.51,2.24,1,3.37,1.37s2.24.64,3.5,1a5.6,5.6,0,0,1-3.83,0A5.66,5.66,0,0,1,108.68,35.93Z" transform="translate(-13.15 -8.84)" fill="#577987"/><path d="M106.36,37.12a4.6,4.6,0,0,1-.68,3.21,4.51,4.51,0,0,1-2.55,2.05c.61-.94,1.19-1.72,1.7-2.58S105.8,38.09,106.36,37.12Z" transform="translate(-13.15 -8.84)" fill="#577987"/><path d="M107.2,33.57a2.23,2.23,0,0,1,2.45-1.26A2.49,2.49,0,0,1,111,33a11.22,11.22,0,0,1,.84,1.08c.4.6,1.15.69,2.07.87a3.15,3.15,0,0,1,1.35.55,1.38,1.38,0,0,1,.59,1.27,1.35,1.35,0,0,0-.85-.85,3.45,3.45,0,0,0-1.19-.2,5.88,5.88,0,0,1-1.4-.14,2.5,2.5,0,0,1-1.35-.88c-.58-.84-.87-1.41-1.63-1.66A2.32,2.32,0,0,0,107.2,33.57Z" transform="translate(-13.15 -8.84)" fill="#577987"/><path d="M122.65,41.59a3,3,0,0,0,1.22,1.85,3.58,3.58,0,0,0,2,.62,7.13,7.13,0,0,0,2.22-.28c.75-.2,1.52-.48,2.33-.67a8.33,8.33,0,0,1-2.06,1.4,5.43,5.43,0,0,1-2.54.55,3.59,3.59,0,0,1-2.46-1A2.49,2.49,0,0,1,122.65,41.59Z" transform="translate(-13.15 -8.84)" fill="#577987"/><path d="M132.77,43.1A3,3,0,0,1,135,46.86,18.91,18.91,0,0,1,133.81,45,19.59,19.59,0,0,1,132.77,43.1Z" transform="translate(-13.15 -8.84)" fill="#577987"/><path d="M124.33,38.44a3,3,0,0,0,.54,1.85,3.44,3.44,0,0,0,1.39,1.14,10.26,10.26,0,0,0,3.89.69,5.33,5.33,0,0,1-2.09.61,4.51,4.51,0,0,1-2.24-.4,3.28,3.28,0,0,1-1.63-1.67A2.32,2.32,0,0,1,124.33,38.44Z" transform="translate(-13.15 -8.84)" fill="#577987"/><path d="M128.51,39a2,2,0,0,0,.49.75c.18.18.38.35.6.53a6.44,6.44,0,0,1,.69.6,3.11,3.11,0,0,1,.59.85,2.69,2.69,0,0,1-1-.2,3.15,3.15,0,0,1-.9-.49,2.08,2.08,0,0,1-.65-.92A1.1,1.1,0,0,1,128.51,39Z" transform="translate(-13.15 -8.84)" fill="#577987"/><path d="M61.83,50.65a5.36,5.36,0,0,1,3.87-8,7.9,7.9,0,0,0-3.87,8Z" transform="translate(-13.15 -8.84)" fill="#577987"/><path d="M124.58,67.1a6.58,6.58,0,0,1,1.47-2.34" transform="translate(-13.15 -8.84)" fill="none" stroke="#de8f62" stroke-linejoin="round" stroke-width="1.03"/><path d="M125.47,67.11A8.52,8.52,0,0,1,127,65" transform="translate(-13.15 -8.84)" fill="none" stroke="#de8f62" stroke-linejoin="round" stroke-width="1.03"/><path d="M126.31,67.06a5.82,5.82,0,0,1,1.53-1.71" transform="translate(-13.15 -8.84)" fill="none" stroke="#de8f62" stroke-linejoin="round" stroke-width="1.03"/><path d="M134.21,59.39a7.59,7.59,0,0,0,.43-2.5" transform="translate(-13.15 -8.84)" fill="none" stroke="#de8f62" stroke-linejoin="round" stroke-width="1.03"/><path d="M134.91,59.35a6.82,6.82,0,0,0,.42-2.28" transform="translate(-13.15 -8.84)" fill="none" stroke="#de8f62" stroke-linejoin="round" stroke-width="1.03"/><path d="M135.64,59.25a7.91,7.91,0,0,0,.33-2" transform="translate(-13.15 -8.84)" fill="none" stroke="#de8f62" stroke-linejoin="round" stroke-width="1.03"/><path d="M118,61.58a10.37,10.37,0,0,0,2.75-1" transform="translate(-13.15 -8.84)" fill="none" stroke="#de8f62" stroke-linejoin="round" stroke-width="1.03"/><path d="M118.31,62.47a11.31,11.31,0,0,0,2.58-1" transform="translate(-13.15 -8.84)" fill="none" stroke="#de8f62" stroke-linejoin="round" stroke-width="1.03"/><path d="M118.31,63.29a11,11,0,0,0,2.45-.76" transform="translate(-13.15 -8.84)" fill="none" stroke="#de8f62" stroke-linejoin="round" stroke-width="1.03"/><path d="M67,66a3.25,3.25,0,0,1,1.42-1.53" transform="translate(-13.15 -8.84)" fill="none" stroke="#de8f62" stroke-linejoin="round" stroke-width="1.03"/><path d="M67.31,66.65a4.09,4.09,0,0,1,1.35-1.48" transform="translate(-13.15 -8.84)" fill="none" stroke="#de8f62" stroke-linejoin="round" stroke-width="1.03"/><path d="M68,66.8a4.68,4.68,0,0,1,1.25-1.18" transform="translate(-13.15 -8.84)" fill="none" stroke="#de8f62" stroke-linejoin="round" stroke-width="1.03"/><path d="M72.66,66a4.54,4.54,0,0,1,1,1.45" transform="translate(-13.15 -8.84)" fill="none" stroke="#de8f62" stroke-linejoin="round" stroke-width="1.03"/><path d="M73.47,65.73a5.64,5.64,0,0,1,1.16,1.41" transform="translate(-13.15 -8.84)" fill="none" stroke="#de8f62" stroke-linejoin="round" stroke-width="1.03"/><path d="M74,65.24a3.08,3.08,0,0,1,.89,1.07" transform="translate(-13.15 -8.84)" fill="none" stroke="#de8f62" stroke-linejoin="round" stroke-width="1.03"/><path d="M59.6,61.21a8.17,8.17,0,0,0,1,2.1" transform="translate(-13.15 -8.84)" fill="none" stroke="#de8f62" stroke-linejoin="round" stroke-width="1.03"/><path d="M60.39,60.82a6.94,6.94,0,0,0,1.25,2.61" transform="translate(-13.15 -8.84)" fill="none" stroke="#de8f62" stroke-linejoin="round" stroke-width="1.03"/><path d="M61.21,60.26A8.45,8.45,0,0,0,62.62,63" transform="translate(-13.15 -8.84)" fill="none" stroke="#de8f62" stroke-linejoin="round" stroke-width="1.03"/><path d="M72.22,62.23A25.87,25.87,0,0,1,77.65,61" transform="translate(-13.15 -8.84)" fill="none" stroke="#e8a600" stroke-linejoin="round" stroke-width="1.03"/><path d="M76.26,61.14,75,59" transform="translate(-13.15 -8.84)" fill="none" stroke="#e8a600" stroke-linejoin="round" stroke-width="1.03"/><path d="M70.61,62.74a16.86,16.86,0,0,0-6.55-1.84" transform="translate(-13.15 -8.84)" fill="none" stroke="#e8a600" stroke-linejoin="round" stroke-width="1.03"/><path d="M71,65.36l1.9-.66" transform="translate(-13.15 -8.84)" fill="none" stroke="#de8f62" stroke-linejoin="round" stroke-width="1.03"/><path d="M105.9,60.3l7.78.39" transform="translate(-13.15 -8.84)" fill="none" stroke="#e86171" stroke-linejoin="round" stroke-width="1.03"/><path d="M106.73,60.28l-.87-5.58" transform="translate(-13.15 -8.84)" fill="none" stroke="#e86171" stroke-linejoin="round" stroke-width="1.03"/><path d="M135.81,61.31a5.15,5.15,0,0,1,1.11-.36" transform="translate(-13.15 -8.84)" fill="none" stroke="#ffb600" stroke-linejoin="round" stroke-width="1.03"/><path d="M134.36,61.44a10.31,10.31,0,0,0-2-3.17" transform="translate(-13.15 -8.84)" fill="none" stroke="#ffb600" stroke-linejoin="round" stroke-width="1.03"/><path d="M76.91,54.71l4.92-2.9" transform="translate(-13.15 -8.84)" fill="none" stroke="#217edb" stroke-linejoin="round" stroke-width="1.03"/><path d="M96.57,57.36a7.55,7.55,0,0,0,0-4.39" transform="translate(-13.15 -8.84)" fill="none" stroke="#217edb" stroke-linejoin="round" stroke-width="1.03"/><path d="M118.7,54.7a5,5,0,0,0-1.61-.94" transform="translate(-13.15 -8.84)" fill="none" stroke="#e86171" stroke-linejoin="round" stroke-width="1.03"/><path d="M129.8,48.39a.53.53,0,0,1,.07.44.54.54,0,0,1-.28.33c-.33.15-.65-.21-.56-.54S129.57,48.08,129.8,48.39Z" transform="translate(-13.15 -8.84)" fill="#32586b"/><path d="M124.39,47.71a.53.53,0,0,1,.07.44.54.54,0,0,1-.28.33c-.33.15-.65-.21-.56-.54S124.16,47.4,124.39,47.71Z" transform="translate(-13.15 -8.84)" fill="#32586b"/><path d="M112.94,42.27a.52.52,0,0,1,.06.44.53.53,0,0,1-.27.33.44.44,0,0,1-.56-.54C112.25,42.17,112.71,42,112.94,42.27Z" transform="translate(-13.15 -8.84)" fill="#32586b"/><path d="M107.26,43.4a.53.53,0,0,1-.2.77c-.34.15-.65-.21-.57-.54S107,43.09,107.26,43.4Z" transform="translate(-13.15 -8.84)" fill="#32586b"/><path d="M94.27,43.27a.53.53,0,0,1-.2.77.45.45,0,0,1-.57-.54C93.59,43.17,94,43,94.27,43.27Z" transform="translate(-13.15 -8.84)" fill="#32586b"/><path d="M72.87,51.42a.53.53,0,0,1-.2.77c-.34.15-.65-.22-.57-.54S72.64,51.11,72.87,51.42Z" transform="translate(-13.15 -8.84)" fill="#32586b"/><path d="M68,51.54A.49.49,0,0,1,68,52a.5.5,0,0,1-.27.33c-.33.15-.65-.21-.56-.54S67.74,51.23,68,51.54Z" transform="translate(-13.15 -8.84)" fill="#32586b"/><path d="M88,41.73a.52.52,0,0,1,.06.44.53.53,0,0,1-.27.33c-.33.15-.65-.22-.56-.54S87.78,41.42,88,41.73Z" transform="translate(-13.15 -8.84)" fill="#32586b"/><path d="M131.29,46.86a.93.93,0,0,1,.27.21.27.27,0,0,1,0,.31c-.08.15-.28.17-.45.15a3.52,3.52,0,0,1-1.34-.43.78.78,0,0,1-.33-.32C129.18,46,131.07,46.74,131.29,46.86Z" transform="translate(-13.15 -8.84)" fill="#32586b"/><path d="M123,45.56a.68.68,0,0,0-.32.11.3.3,0,0,0-.15.28c0,.17.22.25.39.29a3.48,3.48,0,0,0,1.4,0,.71.71,0,0,0,.42-.19C125.25,45.42,123.21,45.52,123,45.56Z" transform="translate(-13.15 -8.84)" fill="#32586b"/><path d="M126.86,47.3l-.46,2.23a1.16,1.16,0,0,0-.65-.35.83.83,0,0,0-.7.27.64.64,0,0,0-.09.73.76.76,0,0,0,.38.3,2.88,2.88,0,0,0,.49.11" transform="translate(-13.15 -8.84)" fill="none" stroke="#de8f62" stroke-linejoin="round" stroke-width="1.03"/><path d="M133.9,49.72a1.48,1.48,0,0,1,1.49-.2" transform="translate(-13.15 -8.84)" fill="none" stroke="#de8f62" stroke-linejoin="round" stroke-width="1.03"/><path d="M134.54,49.53a1.66,1.66,0,0,1,.3,1" transform="translate(-13.15 -8.84)" fill="none" stroke="#de8f62" stroke-linejoin="round" stroke-width="1.03"/><path d="M126.35,53.31a3,3,0,0,0,1.83-.49,3,3,0,0,0,1.17-1.49,6.83,6.83,0,0,1-.08,1.5,1.62,1.62,0,0,1-.73,1,1.55,1.55,0,0,1-1.08.09A3.71,3.71,0,0,1,126.35,53.31Z" transform="translate(-13.15 -8.84)" fill="#fff"/><circle cx="117.78" cy="41.74" r="1.13" fill="#ff7976" opacity="0.3"/><circle cx="109.42" cy="41.28" r="1.13" fill="#ff7976" opacity="0.3"/><circle cx="101.13" cy="34.89" r="1.13" fill="#ff7976" opacity="0.3"/><circle cx="92.78" cy="36.79" r="1.13" fill="#ff7976" opacity="0.3"/><circle cx="81.32" cy="37.08" r="1.13" fill="#ff7976" opacity="0.3"/><circle cx="72.68" cy="34.98" r="1.13" fill="#ff7976" opacity="0.3"/><path d="M74.69,52.44a8.86,8.86,0,0,1-.18,1.44c0,.22-.09.43-.15.65l-.21,0a1.13,1.13,0,1,1,0-2.25A1.09,1.09,0,0,1,74.69,52.44Z" transform="translate(-13.15 -8.84)" fill="#ff7976" opacity="0.3"/><circle cx="53" cy="45.06" r="1.13" fill="#ff7976" opacity="0.3"/><path d="M106.43,42.13s.11-.06.12-.12a.13.13,0,0,0-.08-.15.42.42,0,0,0-.19,0,1.93,1.93,0,0,0-.87.3c-.15.1-.65.47-.52.7s.42-.11.55-.19C105.75,42.45,106.1,42.3,106.43,42.13Z" transform="translate(-13.15 -8.84)" fill="#32586b"/><path d="M113.7,41.24a.2.2,0,0,0,.17,0,.13.13,0,0,0,0-.17.37.37,0,0,0-.13-.12,1.87,1.87,0,0,0-.89-.28c-.18,0-.79,0-.82.26s.4.15.55.17C113,41.1,113.34,41.18,113.7,41.24Z" transform="translate(-13.15 -8.84)" fill="#32586b"/><path d="M109.66,42.48l.28,2a1,1,0,0,0-.73.32.69.69,0,1,0,1.07.87" transform="translate(-13.15 -8.84)" fill="none" stroke="#de8f62" stroke-linejoin="round" stroke-width="1.03"/><path d="M116,41.94a.89.89,0,0,1,.58-.44.94.94,0,0,1,.73.14" transform="translate(-13.15 -8.84)" fill="none" stroke="#de8f62" stroke-linejoin="round" stroke-width="1.03"/><path d="M116.47,41.57a1.35,1.35,0,0,1,.49.86" transform="translate(-13.15 -8.84)" fill="none" stroke="#de8f62" stroke-linejoin="round" stroke-width="1.03"/><path d="M103.27,44.51A1.12,1.12,0,0,0,102,45" transform="translate(-13.15 -8.84)" fill="none" stroke="#de8f62" stroke-linejoin="round" stroke-width="1.03"/><path d="M102.65,44.51a1,1,0,0,0,.17,1" transform="translate(-13.15 -8.84)" fill="none" stroke="#de8f62" stroke-linejoin="round" stroke-width="1.03"/><path d="M111,47.68a5.8,5.8,0,0,0,2.31-2.61,5.63,5.63,0,0,1,.33,1.11,1.56,1.56,0,0,1-.22,1.06,1.61,1.61,0,0,1-1.11.64A5,5,0,0,1,111,47.68Z" transform="translate(-13.15 -8.84)" fill="#fff"/><path d="M91.09,42.06l-.55,2.12a.81.81,0,0,1,.76.22.68.68,0,0,1,.1.72.83.83,0,0,1-.64.43,1.3,1.3,0,0,1-.77-.19" transform="translate(-13.15 -8.84)" fill="none" stroke="#de8f62" stroke-linejoin="round" stroke-width="1.03"/><path d="M96.79,44.68a1,1,0,0,1,.78-.31,1,1,0,0,1,.74.39" transform="translate(-13.15 -8.84)" fill="none" stroke="#de8f62" stroke-linejoin="round" stroke-width="1.03"/><path d="M97.49,44.36a1.8,1.8,0,0,1,.17,1.27" transform="translate(-13.15 -8.84)" fill="none" stroke="#de8f62" stroke-linejoin="round" stroke-width="1.03"/><path d="M84.22,42.3a1.14,1.14,0,0,0-.74-.38,1.09,1.09,0,0,0-.8.21" transform="translate(-13.15 -8.84)" fill="none" stroke="#de8f62" stroke-linejoin="round" stroke-width="1.03"/><path d="M83.65,41.94a1.21,1.21,0,0,0-.59,1" transform="translate(-13.15 -8.84)" fill="none" stroke="#de8f62" stroke-linejoin="round" stroke-width="1.03"/><path d="M70.06,50.9,70.41,53c.1,0,.22-.18.34-.21a.75.75,0,0,1,.49,0,.52.52,0,0,1,.21.59.75.75,0,0,1-.48.44,1.18,1.18,0,0,1-.67,0" transform="translate(-13.15 -8.84)" fill="none" stroke="#de8f62" stroke-linejoin="round" stroke-width="1.03"/><path d="M62.87,52.7a1,1,0,0,0-.75-.24,1,1,0,0,0-.68.4" transform="translate(-13.15 -8.84)" fill="none" stroke="#de8f62" stroke-linejoin="round" stroke-width="1.03"/><path d="M62.33,52.48a1.61,1.61,0,0,0-.31,1.2" transform="translate(-13.15 -8.84)" fill="none" stroke="#de8f62" stroke-linejoin="round" stroke-width="1.03"/><path d="M95.15,42.18c.17.08.41.13.53,0s.06-.36,0-.52a1.7,1.7,0,0,0-1.23-.79c-.49-.07-.57.26-.29.59A2.62,2.62,0,0,0,95.15,42.18Z" transform="translate(-13.15 -8.84)" fill="#32586b"/><path d="M87.11,40.2c-.19,0-.42-.07-.47-.26s.11-.35.27-.45a1.78,1.78,0,0,1,1.46-.16c.47.16.39.49,0,.67A2.79,2.79,0,0,1,87.11,40.2Z" transform="translate(-13.15 -8.84)" fill="#32586b"/><path d="M73.38,49.81c.08,0,.17,0,.21-.05s0-.11,0-.16a1.17,1.17,0,0,0-.64-.52.7.7,0,0,0-.76.2c-.23.28.19.28.39.33Z" transform="translate(-13.15 -8.84)" fill="#32586b"/><path d="M66.93,49.81c-.07,0-.16,0-.2-.05s0-.11,0-.16a1.21,1.21,0,0,1,.64-.52.71.71,0,0,1,.77.2c.23.28-.19.28-.39.33Z" transform="translate(-13.15 -8.84)" fill="#32586b"/><path d="M88,45.31a11.66,11.66,0,0,0,1.6,1.91,1.23,1.23,0,0,1-.89.5,1,1,0,0,1-.82-.42,1.39,1.39,0,0,1-.21-.93A4.46,4.46,0,0,1,88,45.31Z" transform="translate(-13.15 -8.84)" fill="#fff"/><path d="M67.75,54.28a3.94,3.94,0,0,0,2.53,2.25,1.29,1.29,0,0,1-1.36.3,1.75,1.75,0,0,1-1-1A3.87,3.87,0,0,1,67.75,54.28Z" transform="translate(-13.15 -8.84)" fill="#fff"/></svg>