<svg xmlns="http://www.w3.org/2000/svg" xmlns:xlink="http://www.w3.org/1999/xlink" viewBox="0 0 452.81 466.53"><defs><linearGradient id="a" x1="175.31" y1="643.77" x2="169.67" y2="643.66" gradientTransform="matrix(34.48, 0, 0, -279.3, -5629.86, 179968.41)" gradientUnits="userSpaceOnUse"><stop offset="0" stop-color="#57bddb"/><stop offset="1" stop-color="#e598b2"/></linearGradient><linearGradient id="b" x1="177.03" y1="643.73" x2="175.05" y2="644.14" gradientTransform="matrix(189.35, 0, 0, -287.67, -33228.27, 185362.84)" xlink:href="#a"/><linearGradient id="c" x1="176.52" y1="640.3" x2="177.33" y2="633.69" gradientTransform="matrix(222.55, 0, 0, -29.41, -39105.7, 18774)" xlink:href="#a"/><linearGradient id="d" x1="28.09" y1="390.73" x2="452.74" y2="390.73" gradientTransform="matrix(1, 0, 0, 1, 0, 0)" xlink:href="#a"/></defs><path d="M134.57,135.16c35.23-1,65.74,24.18,70.35,57.26,5,36.16-22.7,68.7-56.83,73.91-42.46,6.48-83.64-31-79.95-71.7C70.93,164,98.77,136.21,134.57,135.16Z" transform="translate(-28.09 -16.7)" fill="#f3b062" opacity="0.5" style="isolation:isolate"/><path d="M134.56,213.77c1.29,19.4,20.64,35.06,34.28,46.67,1,.83,2.34-.61,1.37-1.44-13.23-11.26-32.42-26.58-33.67-45.29C136.46,212.44,134.47,212.49,134.56,213.77Z" transform="translate(-28.09 -16.7)" fill="#47a0c5"/><path d="M155.9,246.73c-6.17-12.46-1.77-25.55,2.68-37.76l-1.5.24c5,10.81,1.22,27.12-2.67,37.76-.37,1,1.24,1.38,1.6.39,4-11,7.66-27.81,2.47-39-.33-.72-1.29-.33-1.5.24-4.65,12.74-8.86,26.14-2.47,39,.47,1,1.86.07,1.4-.87Z" transform="translate(-28.09 -16.7)" fill="#47a0c5"/><path d="M145.76,236.3c-13.86-.35-23.42-10.46-32.07-20.11-.18.48-.37.95-.55,1.43,11.87.66,24.57,11.71,32.08,20.11.71.79,1.84-.42,1.13-1.2-7.84-8.78-20.9-19.87-33.25-20.56-.78-.05-1,.94-.54,1.42,9,10.05,18.9,20.19,33.25,20.56,1.06,0,1-1.62-.05-1.64Z" transform="translate(-28.09 -16.7)" fill="#47a0c5"/><path d="M137,217.2c-5-11.62-10-24.17-4.4-36.55l-1.71,0c6,11.41,5.12,24,4,36.36-.12,1.27,1.87,1.21,2-.05,1.18-12.85,1.9-25.6-4.28-37.36a1,1,0,0,0-1.71,0c-5.83,12.9-1,25.87,4.24,38.09.5,1.16,2.41.6,1.9-.58Z" transform="translate(-28.09 -16.7)" fill="#47a0c5"/><path d="M403.06,250.53a22.83,22.83,0,0,1-7.36-.73c-6.09-1.66-11.87-6.18-16.72-13.07l-.54-.79a17.45,17.45,0,0,0-3.79-4.38c-2.26-1.64-5.27-2.08-7.92-2.46l-1.07-.15c-3.23-.44-5.37-.74-8.13-3a38.29,38.29,0,0,0-7.49-5.05c-.93-.49-1.9-.95-2.89-1.42-4.54-2.18-9.24-4.44-12-8.85-3.08-4.76-3-10.82-3-15.69,0-4.33.06-10.25,3.32-14.51a.81.81,0,0,1,1.15-.15.54.54,0,0,1,.15.15A40.86,40.86,0,0,0,355.84,194c-4.19-3.72-8.27-7.6-12.17-11.58-2.86-2.93-6-6.84-4.93-11.13a12.85,12.85,0,0,1,3-4.91c.38-.45.76-.89,1.1-1.34,2.1-2.71,3.39-6.05,4.64-9.28,1.34-3.48,2.72-7.06,5.13-10a18.61,18.61,0,0,1,7.44-5.5.83.83,0,0,1,1,.28,213.92,213.92,0,0,0,24.64,27.95c-6.08-9.49-11.85-19.41-14.83-30.49a5.35,5.35,0,0,1,0-3.82,5.47,5.47,0,0,1,2.22-2.07l7.32-4.53a.82.82,0,0,1,1.13.27.37.37,0,0,1,.07.14,229.85,229.85,0,0,0,12,26.41A287.76,287.76,0,0,1,390.52,124a.82.82,0,0,1,.55-.82c6.91-2.37,14.37-2.28,21.58-2.19,7.5.09,15.26.19,22.18-2.57a.83.83,0,0,1,1.08.46.86.86,0,0,1,0,.5c-1.1,4.51,2,9,4.75,13,4.16,6,5.28,10.83,3.4,14.68a11.51,11.51,0,0,1-5.51,5.05,26.29,26.29,0,0,0,5.27-1.11.84.84,0,0,1,1,.54.44.44,0,0,1,0,.1A210.68,210.68,0,0,1,448.24,194a.82.82,0,0,1-.78.8h0l-20.81.92a68.91,68.91,0,0,1-11.22-.12c8.46,3.92,18.8,3.44,29.55,2.49a.84.84,0,0,1,.9.73c.82,7.32,1.27,14.36-2.37,20a31.48,31.48,0,0,1-2.17,2.85c-.6.72-1.2,1.44-1.74,2.21a35.15,35.15,0,0,0-2.41,4.27,41.32,41.32,0,0,1-2.09,3.81,21.83,21.83,0,0,1-11.17,8.81,7.61,7.61,0,0,1-3.43.52,8.43,8.43,0,0,1-2.95-1.14,155.79,155.79,0,0,1-15.69-9.79,35.11,35.11,0,0,0,15.77,13.55.83.83,0,0,1,.43,1.09.76.76,0,0,1-.29.35A29.48,29.48,0,0,1,403.06,250.53Zm-66.9-68.26c-2.13,3.41-2.33,7.75-2.37,12.63,0,4.66-.06,10.45,2.75,14.8h0c2.49,4,7,6.15,11.31,8.23,1,.48,2,.95,2.93,1.44a40.66,40.66,0,0,1,7.79,5.26c2.4,2,4.14,2.25,7.3,2.68l1.08.15c2.84.41,6.07.88,8.65,2.76a18.74,18.74,0,0,1,4.18,4.78l.53.77c4.62,6.57,10.09,10.87,15.81,12.43,6,1.63,13.19.35,19.44-3.43a36.81,36.81,0,0,1-17-16.93.84.84,0,0,1,.39-1.11.82.82,0,0,1,.85.09,154.44,154.44,0,0,0,18.5,11.85,7.07,7.07,0,0,0,2.37.95,6,6,0,0,0,2.67-.44,20.16,20.16,0,0,0,10.33-8.14,39.3,39.3,0,0,0,2-3.66,36.47,36.47,0,0,1,2.54-4.47c.56-.8,1.19-1.56,1.82-2.31a31.28,31.28,0,0,0,2.05-2.69c3.22-5,2.94-11.42,2.21-18.14-12.65,1.09-24.75,1.39-34.12-5.35a.82.82,0,0,1,.73-1.45c5,1.52,10.42,1.29,15.64,1.06l20-.89a209.36,209.36,0,0,0-3.15-40.3,27.9,27.9,0,0,1-9.18,1,.82.82,0,0,1-.25-1.59c3.68-1.39,7.1-2.88,8.58-5.92,1.58-3.26.51-7.51-3.28-13-2.53-3.67-5.62-8.15-5.23-12.85-6.86,2.37-14.28,2.27-21.47,2.19-6.86-.08-14-.17-20.43,1.91A285.77,285.77,0,0,0,396,158.84a.82.82,0,0,1-1.53.54,229.92,229.92,0,0,1-14.06-29.94l-6.47,4a4,4,0,0,0-1.61,1.4,4,4,0,0,0,.1,2.66c3.48,13,11,24.46,18.19,35.54a.83.83,0,0,1-1.24,1.07A216.15,216.15,0,0,1,360.1,142a16.76,16.76,0,0,0-6.2,4.77c-2.24,2.76-3.52,6.07-4.87,9.57-1.29,3.34-2.63,6.8-4.87,9.7-.37.48-.76.94-1.15,1.4a11.23,11.23,0,0,0-2.67,4.26c-.89,3.48,1.94,6.94,4.51,9.56,4.73,4.83,9.73,9.52,14.87,13.94a.83.83,0,0,1-.73,1.43,42.56,42.56,0,0,1-22.82-14.33Z" transform="translate(-28.09 -16.7)" fill="#47a0c5"/><path d="M352.05,254a.83.83,0,0,1-.88-.77.86.86,0,0,1,.35-.73c12.75-8.82,20.37-23.36,27.08-36.18l31-59.14c6.9-13.18,14-26.81,24.25-38.11a.82.82,0,1,1,1.22,1.1c-10.06,11.15-17.15,24.69-24,37.78l-31,59.13c-6.8,13-14.51,27.73-27.59,36.78A.73.73,0,0,1,352.05,254Z" transform="translate(-28.09 -16.7)" fill="#47a0c5"/><path d="M405.63,166.79a.82.82,0,0,1-.77-.43c-3.85-7.15-4.24-15.41-4.62-23.4-.32-6.84-.65-13.92-3.17-20.2a.82.82,0,0,1,1.53-.61c2.62,6.54,3,13.75,3.29,20.73.39,8.17.75,15.88,4.42,22.7a.81.81,0,0,1-.67,1.21Z" transform="translate(-28.09 -16.7)" fill="#47a0c5"/><path d="M412.9,153.66a.82.82,0,0,1-.82-.53c-1.36-3.6-1.49-7.47-1.61-11.21-.05-1.63-.11-3.32-.27-4.94a37.69,37.69,0,0,0-4.56-14.54.82.82,0,0,1,.31-1.12.84.84,0,0,1,1.13.32,39.46,39.46,0,0,1,4.76,15.18c.16,1.68.22,3.39.28,5.05.12,3.77.24,7.33,1.5,10.67a.83.83,0,0,1-.48,1.07,1,1,0,0,1-.24,0Z" transform="translate(-28.09 -16.7)" fill="#47a0c5"/><path d="M421.67,138.41a.83.83,0,0,1-.87-.78.82.82,0,0,1,.59-.83,22.9,22.9,0,0,1,6.44-.71c2.61-.05,5.08-.08,7.23-1.17a7.86,7.86,0,0,0,3.71-4,.83.83,0,1,1,1.54.62,9.58,9.58,0,0,1-4.5,4.89c-2.5,1.26-5.27,1.31-7.95,1.35a21.58,21.58,0,0,0-6,.63Z" transform="translate(-28.09 -16.7)" fill="#47a0c5"/><path d="M422.54,181.18l-1.39.07c-3.38.13-6.82.09-10.15,0-4.31-.06-8.78-.13-13.13.22a.78.78,0,0,1-.88-.66.34.34,0,0,0,0-.1.84.84,0,0,1,.76-.89c4.44-.35,8.93-.28,13.29-.22,3.3,0,6.71.09,10.06,0,9.27-.38,16.42-2.27,21.83-5.81a15.14,15.14,0,0,0,3.38-2.85.83.83,0,0,1,1.17-.06.84.84,0,0,1,.09,1.12,16.43,16.43,0,0,1-3.74,3.17C438.43,178.7,431.45,180.67,422.54,181.18Z" transform="translate(-28.09 -16.7)" fill="#47a0c5"/><path d="M386.78,201.52c-11.39.66-20.91-7.34-25.64-12.27a135.56,135.56,0,0,1-9-10.74,119.15,119.15,0,0,0-10.06-11.82.82.82,0,0,1,0-1.17.83.83,0,0,1,1.17,0,122.76,122.76,0,0,1,10.2,12,134.41,134.41,0,0,0,8.88,10.61c4.66,4.85,14.17,12.8,25.26,11.69a.8.8,0,0,1,.9.71v0a.84.84,0,0,1-.74.91h0Z" transform="translate(-28.09 -16.7)" fill="#47a0c5"/><path d="M440.11,222.75a.76.76,0,0,1-.36-.06c-6.14-2.54-13.07-3-19.08-3.26l-2.57-.1c-5.69-.21-11.58-.42-17.21-1.83-7.45-1.86-13.36-5.72-16.65-10.88a.83.83,0,0,1,1.4-.88c3.05,4.79,8.61,8.4,15.65,10.16,5.47,1.37,11.27,1.58,16.87,1.78l2.58.1c6.15.25,13.25.74,19.64,3.38a.83.83,0,0,1,.46,1.08A.82.82,0,0,1,440.11,222.75Z" transform="translate(-28.09 -16.7)" fill="#47a0c5"/><path d="M410.29,249.18a.71.71,0,0,1-.25,0c-7.84-2-13.63-8.08-17.81-13.15-1.11-1.35-2.19-2.74-3.28-4.12-3.37-4.31-6.86-8.76-11.2-12.12a.82.82,0,0,1,1-1.3c4.51,3.47,8.06,8,11.5,12.4,1.07,1.37,2.15,2.75,3.25,4.09,4,4.88,9.57,10.72,16.94,12.6a.82.82,0,0,1-.16,1.62Z" transform="translate(-28.09 -16.7)" fill="#47a0c5"/><path d="M382,212.63h-.07l-15.13-.47c-5.43-.18-11-.66-14.68-4.43a.82.82,0,0,1,.08-1.16.81.81,0,0,1,1.1,0c3.21,3.32,8.46,3.76,13.55,3.92l15.13.47a.83.83,0,0,1,0,1.65Z" transform="translate(-28.09 -16.7)" fill="#47a0c5"/><path d="M420.87,174.87a13.19,13.19,0,0,1-1.54,0l-8.35-.46a3.56,3.56,0,0,1-1.72-.42,1.59,1.59,0,0,1-.82-1.74c.55-2.59,8.37-5.56,9.34-5.7h0a28.48,28.48,0,0,1,3.45-.18c1.1,0,2.2-.05,3.31-.14a12.73,12.73,0,0,1,4.88.2,1.77,1.77,0,0,1,1.46,1.53,1.9,1.9,0,0,1-1,1.58l-5.69,4a7.41,7.41,0,0,1-1.92,1.08A5.25,5.25,0,0,1,420.87,174.87ZM418,168.16c-1.39.19-7.77,3.24-7.95,4.4a3,3,0,0,0,1,.17l8.35.47a4.58,4.58,0,0,0,3.84-1l5.69-4a1.32,1.32,0,0,0,.16-.12l-.17-.06a11.46,11.46,0,0,0-4.25-.14c-1.16.1-2.3.15-3.45.16a24.87,24.87,0,0,0-3.23.16Z" transform="translate(-28.09 -16.7)" fill="#47a0c5"/><path d="M431,162.11h-.08a12.71,12.71,0,0,1-4.89-1.2.82.82,0,0,1-.47-.68l0,0a.81.81,0,0,1,.22-1.14h0a12.33,12.33,0,0,1,9.06-1.86.83.83,0,0,1,.66,1,.86.86,0,0,1-.27.47l-3.71,3.29A.8.8,0,0,1,431,162.11Zm-3.31-2.3a10.78,10.78,0,0,0,3,.63l2.05-1.81A10.66,10.66,0,0,0,427.65,159.81Z" transform="translate(-28.09 -16.7)" fill="#47a0c5"/><path d="M390.18,179.47H390c-9.42-1.83-20.1-3.9-28.68-9.77a6.81,6.81,0,0,1-3-3.34,5.25,5.25,0,0,1,1.09-4.81,14.14,14.14,0,0,1,3.53-2.91h0a.83.83,0,0,1,1.22,1c1.08,1.82,10.85,8.49,12.07,9.11l2.22,1.1c4.41,2.16,9,4.41,12.29,8.26a.83.83,0,0,1-.08,1.17A.85.85,0,0,1,390.18,179.47Zm-27.25-18.84a9.88,9.88,0,0,0-2.2,1.93,3.73,3.73,0,0,0-.82,3.28,5.41,5.41,0,0,0,2.31,2.49c7.52,5.15,16.86,7.3,25.45,9-2.89-2.54-6.45-4.29-9.93-6l-2.23-1.11C375.39,170.16,365.25,163.79,362.93,160.63Zm.93-.62" transform="translate(-28.09 -16.7)" fill="#47a0c5"/><path d="M406.38,214.23l-.54,0c-2.38.13-5.64.31-8.15-1.37a9.79,9.79,0,0,1-2.18-2.13c-1.7-2.17-3.77-5.25-2.25-7,.95-1.09,3.49-1,7.57-.54l.95.11a50.23,50.23,0,0,1,8.09,1.35c.33.08,1.34.43,2.95,1s3.75,1.33,4.27,1.45a.82.82,0,0,1,.83.82.81.81,0,0,1-.21.55h0a16.77,16.77,0,0,1-5.33,4.51A16.49,16.49,0,0,1,406.38,214.23Zm-10.69-9.65c-.74,0-1.08.16-1.2.3s-.75.93,2.31,4.86a8,8,0,0,0,1.81,1.78c1.89,1.27,4.35,1.24,7.13,1.09a16.26,16.26,0,0,0,5.94-1.06,13.15,13.15,0,0,0,3.91-3.12c-.75-.25-1.81-.63-3.33-1.16-1.18-.42-2.52-.9-2.79-1a50.59,50.59,0,0,0-7.83-1.31l-1-.11A31.37,31.37,0,0,0,395.69,204.58Z" transform="translate(-28.09 -16.7)" fill="#47a0c5"/><path d="M472.79,234.42c-1.14,14.79-12.18,24.44-23.14,33l0,0-.47.37a.74.74,0,0,1-.32.16,35,35,0,0,1-7.28,6.18c13.26-1.27,26.55-1.94,38.74,4.38a1.07,1.07,0,0,1,0,1.95c-13.7,6.29-27.69,1.1-40.71-4.4a.93.93,0,0,1-.49-.45A75.94,75.94,0,0,1,427,280.88c-.66.23-1.32.44-2,.65,0,0,0,0,.05.06s.17.28.26.42a95.94,95.94,0,0,1,42.95,22,1.05,1.05,0,0,1,.12,1.5,1,1,0,0,1-.93.37c-15.62-1.61-36.39-8.75-44.37-23.48a.7.7,0,0,1-.06-.19,153.73,153.73,0,0,1-22.43,5.24,1,1,0,0,1,.13.16c.08.14.18.28.26.42a96.05,96.05,0,0,1,43,22,1.07,1.07,0,0,1-.82,1.88c-15.62-1.62-36.39-8.75-44.37-23.48a.83.83,0,0,1-.08-.67c-2.21.32-4.42.61-6.63.85a1.06,1.06,0,0,1-.27-2.11q5.79-.61,11.5-1.62a.2.2,0,0,1,0-.07c4.37-14.34,13.85-34.62,27.88-41.87.92-.47,1.61.63,1.37,1.41-4.65,15-10.2,30.68-23.61,39.42a143.2,143.2,0,0,0,14.85-4c2.54-.84,5.08-1.72,7.56-2.73a.41.41,0,0,1,0-.11c2-13.94,4.74-28.72,17.19-37.14a1.07,1.07,0,0,1,1.68,1c-.85,13.47-8.05,24.39-15.8,34.93a37.13,37.13,0,0,0,14-10.52c5.34-12.19,11.21-24.21,22.68-31.74a1.07,1.07,0,0,1,1.49.26A1.09,1.09,0,0,1,472.79,234.42Z" transform="translate(-28.09 -16.7)" fill="#47a0c5"/><path d="M338.54,45.35,373,36.07V301.52s-22.36,12.92-34.48,13.84Z" transform="translate(-28.09 -16.7)" fill="url(#a)"/><path d="M150.56,27.68,339.9,45.51V313.75a1.56,1.56,0,0,1-1.54,1.6,1.37,1.37,0,0,1-.29,0L150.56,286.84Z" transform="translate(-28.09 -16.7)" fill="url(#b)"/><path d="M159.65,278.65l170.42,25.53V54.53L159.65,38.11Zm168.24,23L161.68,276.82V40.43l166.21,16.1Z" transform="translate(-28.09 -16.7)" fill="#fff" opacity="0.64" style="isolation:isolate"/><g opacity="0.3"><path d="M207,261.14c10-24.26-3-34.6,5.05-63.5,16.35-58.56,82.22-59.78,95.19-112,2.46-9.89,3.62-24.16-2.37-43.43l35,3.3V313.75a1.57,1.57,0,0,1-1.55,1.6.88.88,0,0,1-.28,0l-156-23.7C192.9,283.89,201.79,273.94,207,261.14Z" transform="translate(-28.09 -16.7)" fill="#fff"/></g><path d="M150.7,27.13a.38.38,0,0,0-.21.48.39.39,0,0,0,.28.22L335.89,45.9a44,44,0,0,0,18.71-2.21l16.89-5.83a2.3,2.3,0,0,0-.56-4.46L182.54,16.71a2.47,2.47,0,0,0-1,.13l-1.76.62A1.63,1.63,0,0,0,178.67,19v3.34l-18,3.33L156,25.3a.29.29,0,0,0-.13,0Z" transform="translate(-28.09 -16.7)" fill="url(#c)"/><path d="M178.66,19.24,161,25.61,343.11,42.24a4.55,4.55,0,0,0,1.76-.19L361.24,37a.37.37,0,0,0,.23-.46.36.36,0,0,0-.31-.24Z" transform="translate(-28.09 -16.7)" fill="#fff"/><path d="M134,426.37c30.82-15.22,72.85-22.43,102.1,18.82,0,0,4.79,5.33,9.18.07,0,0,18.82-36.54,71.67-28.93,0,0,17.65,2.82,42,11.6s58.5,10.43,66.89,8.39L404.66,278.54,391,281l-4-38.43S367.81,261,310.56,264.19c0,0-55.68-14.43-72.46,30.82,0,0-24.39-47.68-85.32-14.82,0,0-35.6,14.43-73.24,8.39L59.46,434.36S103.14,441.58,134,426.37Z" transform="translate(-28.09 -16.7)" fill="#e598b2"/><path d="M418.55,298.62h-7.37l24.93,151s-39.21,4.78-80.06-9.18c0,0-37.49-20.7-54.74-19.21s-28.94,5.33-36.07,9.65-19.06,18.42-22.28,22c0,0-2.43,3.22-5,0,0,0-20.94-29.25-46.82-29.25,0,0-24.31-3.21-56.31,11.45,0,0-28.93,14.12-56.3,14.74l-34.11-.23,25.33-151-7.38-.39L28.09,461.42l180.53.23a34.25,34.25,0,0,0,63.6.08l180.52.24Z" transform="translate(-28.09 -16.7)" fill="url(#d)"/><path d="M77.5,207a26.49,26.49,0,0,0-19.35,1.15c-3.64,1.71-7,4.4-8.61,8.08-2.63,5.93-.31,12.8-.8,19.28-.58,7.84-5.23,14.69-8.59,21.81-2.63,5.56-4.55,11.6-4.39,17.75s2.65,12.44,7.51,16.21c5.35,4.15,13,4.7,19.3,2.24S73.9,285.9,77.17,280s5-12.61,6-19.31c1.08-7.15,1.47-14.5,4-21.28,2.16-5.83,4.6-10.79,5-17.12.27-4.63-3-8.06-6.44-10.82A26.12,26.12,0,0,0,77.5,207Z" transform="translate(-28.09 -16.7)" fill="#004f7f"/><path d="M111.06,261.89a292.33,292.33,0,0,1,63.13-29.69,34.4,34.4,0,0,0,23.8,14,35.53,35.53,0,0,0,26.87-8,91.55,91.55,0,0,1,22.9,21.08,46.61,46.61,0,0,1-8.26,65.31c-4.16,3.24-9.09,5.83-14.36,6s-10.87-2.54-12.92-7.4c-11.05,6.42-25.16,8.71-37.9,7.86s-25.16-4.4-37.25-8.54c-6.11-2.1-12.36-4.46-17-8.95-5.89-5.67-8.39-13.91-10.68-21.76-1.34-4.61-2.69-9.28-2.8-14.08S107,264.43,111.06,261.89Z" transform="translate(-28.09 -16.7)" fill="#3b9cfd"/><path d="M314.27,261.83A19.89,19.89,0,0,0,336,239.21c-.43-3-1.56-6-1.38-9,.36-5.8,5.42-11,4.09-16.69-1.29-5.44-7.78-8-10.16-13.07-1.89-4-1-9.12-3.57-12.7C320.73,182,311,184.44,305.41,180c-2.69-2.13-4-5.58-6.67-7.78-3.57-3-8.9-3.07-13.25-1.39s-7.95,4.82-11.44,7.91c-3.88-2.9-10.55-2.34-14.88-.18a13.43,13.43,0,0,0-7.25,11.72c0,3.15,1.12,6.27.71,9.39-.81,6.06-7.1,10.37-7.62,16.46-.51,5.93,4.69,11.26,4.09,17.18-.33,3.35-2.49,6.25-3.34,9.51-1.39,5.39,1.06,11.23,5.06,15.11s9.31,6.07,14.64,7.67C280.75,270.19,298.83,265.87,314.27,261.83Z" transform="translate(-28.09 -16.7)" fill="#004f7f"/><path d="M321.93,246.24c7.52.67,15.28,1.86,21.61,6,7.47,4.87,12.1,13.55,12.82,22.44s-2.23,17.88-7.37,25.17a56.27,56.27,0,0,1-20.31,17c-8.88,4.59-18.91,7.32-28.88,6.61s-19.88-5.08-26.24-12.8c-4.68-5.67-7.26-12.84-8.51-20.09s-1.21-14.65-1.19-22c0-4,0-8,1.21-11.82a14.5,14.5,0,0,1,5.49-7.89c2.89-1.92,7.19-1.77,10.54-2.15a203.08,203.08,0,0,1,26-1.25C312,245.54,317,245.8,321.93,246.24Z" transform="translate(-28.09 -16.7)" fill="#ff7976"/><path d="M272.09,247.37c-5.3-1-10.88,1.25-14.7,5s-6,9-7,14.29a70.09,70.09,0,0,0-.71,16.12q.56,14.39,2.24,28.69c.48,4.1,1.13,8.44,3.77,11.63,3.34,4,9,5.18,14.16,5.88a206.72,206.72,0,0,0,42.12,1.33c-1.12-7-2.51-14.36-.51-21.18,0,0-30.34,3.42-33.79-4S272.09,247.37,272.09,247.37Z" transform="translate(-28.09 -16.7)" fill="#ff7976"/><path d="M105.11,319.36s17,7.08,18.73,10.63,2.23,7.83,1.44,8.82-1.17,2.37-2.7,3.21-4.71.28-6.87-1.43-2.69-4.73-5.33-6.45-12.92-7.44-12.92-7.44Z" transform="translate(-28.09 -16.7)" fill="#ffb387"/><path d="M155.51,305.2a28.21,28.21,0,0,1,3.5,9.27,12.77,12.77,0,0,1-2,9.5,13.3,13.3,0,0,1-7.24,4.56,39,39,0,0,1-8.63,1.06l-9.64.47c-2.23.11-4.47.24-6.7.37-1.65.1-6.15,1.22-7.56.44-.88-.5-1.12-1.54-1.44-2.41-.46-1.27-.94-2.54-1.41-3.81l-2.91-7.8c-.22-.6,11.17-4.51,12.22-4.9a4.36,4.36,0,0,0,1.92-1.14,3.86,3.86,0,0,0,.41-3.08c-1.25-6.85-6.32-12.47-7.9-19.25a20,20,0,0,1,1.06-12.21c.64-1.54,1.34-2.89,3.2-2.49s3.47,1.66,5,2.53a75.85,75.85,0,0,1,18,14.56A74.49,74.49,0,0,1,155.51,305.2Z" transform="translate(-28.09 -16.7)" fill="#bbffd1" style="isolation:isolate"/><path d="M73.61,276.7a102.24,102.24,0,0,0-17.85,22.41c-2.3,3.91-4.37,8.06-5.08,12.55s.11,9.39,3,12.85A16.67,16.67,0,0,0,63,329.65a49.8,49.8,0,0,0,10.78.72l24-.14c3,0,6.1.19,9.09-.05,2.51-.2,4.61-2,7.07-2.45a23.5,23.5,0,0,1,4.89,0,9.43,9.43,0,0,0,4.63-1.08,9.67,9.67,0,0,0,3.08-3.09,20.22,20.22,0,0,0,3.44-8.67,23.88,23.88,0,0,0,.26-3.68c-.08-6.4-2.57-12.54-5.66-18.15a55.49,55.49,0,0,0-12.91-16.3,32.67,32.67,0,0,0-19-7.8C85.77,268.64,78.68,271.92,73.61,276.7Z" transform="translate(-28.09 -16.7)" fill="#bbffd1" style="isolation:isolate"/><path d="M409.35,206.31c6.29,2.54,10.83,8.51,12.61,15.06s1.05,13.58-1,20c-2.44,7.66-6.9,14.92-13.58,19.39-1,.69-2.29,1.33-3.46.9-1.4-.51-1.84-2.25-2-3.74-.41-4.45.15-9-.43-13.41-1.13-8.55-6.35-15.93-9.36-24-1.12-3-3.51-8-.91-10.76a16.39,16.39,0,0,1,10.92-4.67A17,17,0,0,1,409.35,206.31Z" transform="translate(-28.09 -16.7)" fill="#004f7f"/><path d="M114.11,226.2c7.71,6.06,12.78,15.61,12.67,25.41s-5.71,19.54-14.5,23.89c-6,3-13,3.38-19.73,3.59a67.45,67.45,0,0,1-14.21-.62,24.59,24.59,0,0,1-12.68-6c-5.23-5.06-7-12.74-7.2-20-.2-8.3,1.51-16.91,6.41-23.63a23.88,23.88,0,0,1,17.52-9.94c3.11-.18,6-.94,9.18-.78a42.11,42.11,0,0,1,11.27,2.11A37.22,37.22,0,0,1,114.11,226.2Z" transform="translate(-28.09 -16.7)" fill="#004f7f"/><path d="M232.42,230.73c3.88-7.27,7.81-14.69,9.2-22.8s-.17-17.2-6-23c-1.48-1.45-3.18-2.66-4.66-4.1a9.9,9.9,0,0,1-3.1-5.26c-.18-1.07-.09-2.17-.23-3.24a3.61,3.61,0,0,0-1.55-2.73,2.43,2.43,0,0,0-3.2.88c-2.48,4.36-7.94,3.15-12.9,2.37s-9.81-2.62-14.83-2.4c-6,.25-11.57,3.47-15.61,7.88s-6.69,9.94-8.66,15.59a83,83,0,0,0-4.63,26.85c3.57,3.07,7.56,4.44,11.94,6.18,8.81,3.52,17.72,7.07,27.1,8.43S228,239.09,232.42,230.73Z" transform="translate(-28.09 -16.7)" fill="#004f7f"/><path d="M230.93,222.58q-.48,2.8-1,5.6c-3.06,15.16-11.75,31.71-28.57,34.47A28.62,28.62,0,0,1,180.87,258c-5.15-3.55-8.67-10.81-10-16.79-1.47-6.68-1.18-13.61-.67-20.43q.66-8.56,1.76-17.11c.35-2.65.41-5.74,1.44-8.18a43.72,43.72,0,0,1,4.16-7.2,28.72,28.72,0,0,1,21.23-12.4c11.54-.87,23.08,5.49,29.39,15.19-.11.81,2.06,3.59,2.46,4.46a35.8,35.8,0,0,1,1.87,5c1.28,4.38.6,9.52-.21,13.93C231.82,217.19,231.39,219.89,230.93,222.58Z" transform="translate(-28.09 -16.7)" fill="#ffbd97"/><path d="M396.75,273.74a77.15,77.15,0,0,1,24.82,14c4.65,3.92,8.9,8.49,11.59,13.95s3.69,11.93,1.84,17.73-6.84,10.72-12.87,11.6c-28,4.1-55.41,1.86-83.67.44-4.24-.21-8.68-.52-12.31-2.73-4.29-2.62-6.76-7.61-7.23-12.61s.82-10,2.68-14.69c5.25-13.18,15.34-25.46,29.14-30S383,269.08,396.75,273.74Z" transform="translate(-28.09 -16.7)" fill="#ffe4a3" style="isolation:isolate"/><path d="M408.74,249.12c-.37,1.91-.76,3.78-1.13,5.58-3.06,15.16-11.74,31.71-28.57,34.47a28.6,28.6,0,0,1-20.45-4.62c-5.16-3.55-8.68-10.8-10-16.79-3.29-15-.32-33.72,11.6-44.32a35.76,35.76,0,0,1,26-8.83C402.23,215.78,411.56,234.62,408.74,249.12Z" transform="translate(-28.09 -16.7)" fill="#ffbd97"/><path d="M320.47,211.91c.82,4.15.68,8.51.85,12.74a56.57,56.57,0,0,1-1,13.06,44.16,44.16,0,0,1-2.12,7.36,34,34,0,0,1-2.93,5.81,25.77,25.77,0,0,1-7.94,8.13,23.52,23.52,0,0,1-19.44,2.55,20.73,20.73,0,0,1-2.2-.83,26.88,26.88,0,0,1-4.83-2.7,41.69,41.69,0,0,1-9.61-9.82c-9.34-13-14-29.86-11-45.62a26.74,26.74,0,0,1,13.61-18.44c9.57-5,21.8-3.81,30.78,2.18S318.45,201.72,320.47,211.91Z" transform="translate(-28.09 -16.7)" fill="#ffb387"/><path d="M124,269.42a48.84,48.84,0,0,1-.87,6.92c-.21,1.05-.45,2.09-.74,3.13a37.24,37.24,0,0,1-1.27,3.87,34.47,34.47,0,0,1-2.78,5.53,24.7,24.7,0,0,1-7.56,7.74A22.37,22.37,0,0,1,92.25,299a18.83,18.83,0,0,1-2.1-.78,25.32,25.32,0,0,1-4.6-2.58,39.74,39.74,0,0,1-9.14-9.34C67.51,274,63.1,257.92,65.93,242.92a25.45,25.45,0,0,1,13-17.56c9.11-4.75,20.75-3.63,29.3,2.07s13.1,14.65,15,24.35c.78,3.94.65,8.1.81,12.13C124.09,265.74,124.07,267.58,124,269.42Z" transform="translate(-28.09 -16.7)" fill="#ffb387"/><path d="M326.2,213.12c2.91.58,4.8,3.77,4.54,6.72a10.3,10.3,0,0,1-4.67,7.22,30.43,30.43,0,0,1-8.11,3.53c.36-.12.34-5.69.37-6.33.12-2-.2-4.67.4-6.56C319.61,214.92,323.36,212.56,326.2,213.12Z" transform="translate(-28.09 -16.7)" fill="#ffb387"/><path d="M256.29,228.22c-2.47,1.63-3,5.3-1.66,7.93a10.3,10.3,0,0,0,7.06,4.91,30.43,30.43,0,0,0,8.84.21c-.38,0-2.47-5.15-2.74-5.73-.87-1.79-1.59-4.4-2.86-5.92C263.07,227.39,258.71,226.62,256.29,228.22Z" transform="translate(-28.09 -16.7)" fill="#ffb387"/><path d="M224.79,240.18a2.28,2.28,0,0,0,2.16.57A20.76,20.76,0,0,0,236,237.5c1.58-1,3.13-2.5,3.33-4.38a4.63,4.63,0,0,0-2.55-4.38,7.08,7.08,0,0,0-5.24-.32,15.71,15.71,0,0,0-4.71,2.54c-.44.32-1.3,3.51-1.5,4.13C224.74,236.85,223.94,239.12,224.79,240.18Z" transform="translate(-28.09 -16.7)" fill="#ffbd97"/><path d="M173,230.57a2.25,2.25,0,0,1-2.22,0,20.89,20.89,0,0,1-7.95-5.42c-1.27-1.4-2.4-3.2-2.12-5.08a4.6,4.6,0,0,1,3.57-3.59,7.13,7.13,0,0,1,5.15,1,16.14,16.14,0,0,1,3.92,3.64c.35.43.38,3.73.42,4.37C173.88,227.35,174.07,229.75,173,230.57Z" transform="translate(-28.09 -16.7)" fill="#ffbd97"/><path d="M416.51,252.76a5.91,5.91,0,0,1,.79,6.56,9.67,9.67,0,0,1-5.22,4.49,28.54,28.54,0,0,1-6.86,1.53c-4.86.68-1.53-8,.06-10.43C407.46,251.56,413.42,249.67,416.51,252.76Z" transform="translate(-28.09 -16.7)" fill="#ffbd97"/><path d="M75.26,282.05a22.46,22.46,0,0,1-9.52-.82,10.49,10.49,0,0,1-6.67-6.45c-.92-3.08.37-6.86,3.28-8.19a5.9,5.9,0,0,1,7.27,2.24C72.28,273.22,73.21,277.33,75.26,282.05Z" transform="translate(-28.09 -16.7)" fill="#ffb387"/><path d="M261.48,227.62c9.76-8.45,15.57-20.62,17.32-33.42,11.71,11.75,25.51,20.16,42.09,20.56.09-11.12-4.78-23.91-13.8-30.4a35.52,35.52,0,0,0-31.74-4.7c-5.77,2-11.11,5.63-14.29,10.83-3,5-3.92,10.95-4,16.76C257,214.14,259.45,221,261.48,227.62Z" transform="translate(-28.09 -16.7)" fill="#004f7f"/><path d="M170.43,218.2c3.52-6.78,7.58-13.57,11.1-20.34a6.52,6.52,0,0,1,2.13-2.76c1.94-1.19,4.41-.12,6.45.86a81.3,81.3,0,0,0,32.35,8,5.24,5.24,0,0,1,3.32.86,5,5,0,0,1,1.28,3.42c.75,6.71,1.88,14.19,2.63,20.9,2.39-1.16,3.95-4.31,5-6.77a43.08,43.08,0,0,0,3.29-21.56c-.93-7.29-4.37-14.38-10.07-19-4.58-3.71-10.34-5.7-16.13-6.81-8.44-1.62-17.62-1.42-25.08,2.84-6.56,3.74-11.19,10.33-13.61,17.49A60.72,60.72,0,0,0,170.43,218.2Z" transform="translate(-28.09 -16.7)" fill="#004f7f"/><path d="M67,266.62a16.08,16.08,0,0,0,8.13-1.52,47.59,47.59,0,0,0,25.29-24.65c10.83,3,19.83,11.75,23.93,22.22,1.1-9.32-.68-19.49-5.87-27.3a33.28,33.28,0,0,0-23-14.7c-9.3-1.2-19.23,2.36-25.19,9.6A30.26,30.26,0,0,0,63.8,247.8,45.65,45.65,0,0,0,67,266.62Z" transform="translate(-28.09 -16.7)" fill="#004f7f"/><path d="M412.46,239.54c.2,5-.84,9.32-4.37,12.84-.12-6.12-2.39-11.18-5.21-16.56a35.56,35.56,0,0,0-6.12-8.73,1.82,1.82,0,0,0-1-.62,1.89,1.89,0,0,0-1.23.4c-5.6,3.46-11.18,7.51-17.54,9.46a21.11,21.11,0,0,1-13.95-.14c-6.6-2.64-10.81-9.38-12.55-16.28-.57-2.25-.9-4.73.12-6.82s3.87-3.4,5.78-2.06a10.22,10.22,0,0,1,15.45-12.16,17.48,17.48,0,0,1,5.06,6.79,5.5,5.5,0,0,1,4.67-4.75,9.45,9.45,0,0,1,6.83,2.2,27.87,27.87,0,0,1,4.95,5.44c2.95,3.89,6.59,7,9.8,10.67C408,224.69,412.17,232.17,412.46,239.54Z" transform="translate(-28.09 -16.7)" fill="#004f7f"/><path d="M418.68,284a13.64,13.64,0,0,1,3.08,11.58,11,11,0,0,1-8.25,8.35c-2.12.43-4.63,0-5.87-1.8-1-1.43-1-3.32-.88-5.07l.45-9c.08-1.63-.09-3.27,0-4.9s.34-3.23.35-4.92c0-.44,2.85.2,3.22.35a24.31,24.31,0,0,1,3.2,1.57A20.3,20.3,0,0,1,418.68,284Z" transform="translate(-28.09 -16.7)" fill="#ffb387"/><path d="M48.59,303.63a16.16,16.16,0,0,0,.65,14.15,13,13,0,0,0,12.27,6.5c2.55-.28,5.22-1.68,6-4.13.63-2-.09-4.09-.81-6l-3.71-10c-.68-1.81-1.07-3.71-1.7-5.53s-1.54-3.53-2.15-5.43c-.16-.5-3.14,1.23-3.5,1.54a27.14,27.14,0,0,0-3.06,2.91A24.1,24.1,0,0,0,48.59,303.63Z" transform="translate(-28.09 -16.7)" fill="#ffbd97"/><path d="M416.67,312.15s3.62,9.74,3.77,19.1c0,0-7.28,0-15.69,0s-16.6-1.71-18.4-1.15-8.53,9-13.71,9.81-11.79,1-11.5-1.26a23.51,23.51,0,0,1,11.78-17.39C382.73,315.79,416.67,312.15,416.67,312.15Z" transform="translate(-28.09 -16.7)" fill="#ffbd97"/><path d="M346.21,287.15s-4.66-5.57-4.95-10.57,4.28-17.22,6.21-15.35.12,12.91.12,12.91,12.58,7.65,11.57,11.15-7.26,24.06-10.72,31.7-6.86,15.58-14.47,14.76-9.46-12.42.62-28.1S346.21,287.15,346.21,287.15Z" transform="translate(-28.09 -16.7)" fill="#ffbd97"/><path d="M311.43,309.18a10.35,10.35,0,0,0,5.11-1.24c2.52-1.4,12.34-9.54,14-7.57s-6,7.57-6,7.57,3.43,1.79,6.27,1.24,10-3.34,13.79-.54,1.4,9.82-2.53,13.74-30.63,4.75-30.63,4.75S309.54,321.64,311.43,309.18Z" transform="translate(-28.09 -16.7)" fill="#ffb387"/><path d="M220.34,270.27s5.76-5.12,8-11.2,1.22-22.9-1.88-21.33-5,15.92-5,15.92-18.45,4.71-18.51,9.41-.13,32.5,1.27,43.25,2.44,23,12.31,23.72c15.11,1.13,19.52-9.69,13-32.89S220.34,270.27,220.34,270.27Z" transform="translate(-28.09 -16.7)" fill="#ffbd97"/><path d="M111.47,316.85s-19.8,6.29-22.17,9.42-3.79,7.2-3.22,8.34.66,2.56,2,3.7,4.54,1.23,7,0,3.6-4.08,6.54-5.22,14.17-4.63,14.17-4.63Z" transform="translate(-28.09 -16.7)" fill="#ffb387"/><path d="M96.52,238.39l-.42,1.46c-.13.47-.33,1-.57,1.65l-.39,1c-.14.35-.33.7-.5,1.08-.35.76-.78,1.55-1.26,2.38s-1,1.66-1.63,2.53a30.86,30.86,0,0,1-2,2.5c-.71.84-1.53,1.6-2.31,2.39s-1.68,1.48-2.58,2.12a31.25,31.25,0,0,1-2.66,1.81c-.91.52-1.78,1-2.65,1.42s-1.69.78-2.48,1.06c-.39.14-.76.3-1.12.42l-1,.3c-.65.19-1.22.34-1.69.43l-1.49.3,1.43-.49a14.25,14.25,0,0,0,1.63-.6c.62-.24,1.31-.53,2-.88a26.14,26.14,0,0,0,2.36-1.19c.83-.43,1.65-1,2.52-1.51s1.72-1.17,2.55-1.84,1.66-1.37,2.48-2.08,1.58-1.49,2.28-2.3,1.39-1.6,2-2.39,1.22-1.59,1.71-2.39a26.38,26.38,0,0,0,1.38-2.25q.61-1.07,1-2c.3-.59.55-1.11.73-1.57Z" transform="translate(-28.09 -16.7)" fill="#577987"/><path d="M94.06,237.08l-.77,1c-.24.33-.56.71-.93,1.15s-.79.95-1.29,1.45-1,1.07-1.62,1.63-1.23,1.14-1.91,1.71-1.4,1.15-2.17,1.68-1.55,1.07-2.34,1.59-1.63,1-2.47,1.41-1.66.82-2.46,1.21-1.61.69-2.38,1-1.49.53-2.17.73a18.74,18.74,0,0,1-1.87.52c-.56.14-1,.25-1.45.33l-1.28.23,1.23-.42c.78-.25,1.88-.67,3.18-1.19.66-.25,1.35-.55,2.09-.88s1.48-.71,2.27-1.08,1.58-.81,2.38-1.26,1.6-.93,2.4-1.41,1.57-1,2.31-1.53,1.48-1.05,2.19-1.57,1.36-1,2-1.57,1.2-1,1.71-1.49c1-.94,1.89-1.74,2.46-2.33Z" transform="translate(-28.09 -16.7)" fill="#577987"/><path d="M104.45,236.24l1.17.43c.38.13.83.32,1.34.55s1.09.47,1.69.8,1.27.68,1.95,1.07,1.38.85,2.09,1.33,1.44,1,2.13,1.6,1.39,1.18,2.08,1.79,1.32,1.28,1.93,1.95,1.18,1.36,1.73,2,1,1.34,1.47,2,.85,1.27,1.2,1.87a17.63,17.63,0,0,1,.91,1.63c.26.5.48.93.64,1.3l.51,1.15-.68-1.06c-.41-.68-1.06-1.61-1.85-2.71-.39-.56-.84-1.14-1.32-1.75s-1-1.22-1.56-1.87-1.14-1.28-1.76-1.92-1.26-1.26-1.9-1.88-1.32-1.22-2-1.78-1.37-1.11-2-1.63-1.33-1-2-1.42-1.25-.85-1.83-1.2c-1.16-.71-2.13-1.29-2.84-1.66Z" transform="translate(-28.09 -16.7)" fill="#577987"/><path d="M80.12,214.31,79,213.77a33.53,33.53,0,0,0-3.14-1.35,24.18,24.18,0,0,0-5.11-1.32,16.88,16.88,0,0,0-6.75.34,13.23,13.23,0,0,0-6.62,4.19,10.12,10.12,0,0,0-2,3.77,11.85,11.85,0,0,0-.22,4.46c.17,1.54.53,3.1.82,4.71a24.29,24.29,0,0,1,.42,5,32.5,32.5,0,0,1-2,10,85.44,85.44,0,0,1-4.13,9.23c-1.48,3-3,5.88-4.12,8.79a38.09,38.09,0,0,0-2.47,8.64,22.47,22.47,0,0,0,.19,8,17.12,17.12,0,0,0,2.76,6.16A14.22,14.22,0,0,0,50.44,288a12.71,12.71,0,0,0,3.06,1.47c.76.22,1.17.3,1.17.3s-.42-.06-1.18-.25a11.86,11.86,0,0,1-3.15-1.36,14.47,14.47,0,0,1-4-3.59,16.67,16.67,0,0,1-3-6.26A22.56,22.56,0,0,1,43,270.1a36.1,36.1,0,0,1,2.38-8.87c2.32-5.94,5.89-11.73,8.12-18a31.55,31.55,0,0,0,2-9.66,23.43,23.43,0,0,0-.38-4.81c-.27-1.59-.62-3.17-.8-4.78a12.16,12.16,0,0,1,.3-4.77,11,11,0,0,1,2.22-4,13.86,13.86,0,0,1,7-4.26,16.44,16.44,0,0,1,6.95-.17A24.81,24.81,0,0,1,76,212.24a29.12,29.12,0,0,1,3.09,1.48Z" transform="translate(-28.09 -16.7)" fill="#577987"/><path d="M178.45,187l.36-.46c.24-.29.55-.76,1-1.28a21.79,21.79,0,0,1,1.81-1.84,14.3,14.3,0,0,1,1.2-1.05,14.76,14.76,0,0,1,1.41-1,17.85,17.85,0,0,1,1.61-1,18.33,18.33,0,0,1,1.81-1,25.6,25.6,0,0,1,4.13-1.66,27.69,27.69,0,0,1,4.66-1c.81-.13,1.63-.13,2.45-.2s1.65,0,2.48,0l1.24.12,1.22.19a23.79,23.79,0,0,1,2.4.52c1.56.4,3.06.87,4.52,1.26a28.86,28.86,0,0,0,4.24.84,12.34,12.34,0,0,0,3.82-.13,8.48,8.48,0,0,0,4.92-2.78,6.93,6.93,0,0,0,.89-1.36c.16-.35.23-.54.23-.54s-.06.2-.18.56a5.67,5.67,0,0,1-.79,1.46,7.81,7.81,0,0,1-1.85,1.82,8.85,8.85,0,0,1-3.1,1.39,17.48,17.48,0,0,1-8.39-.42c-1.49-.37-3-.82-4.54-1.2a22.84,22.84,0,0,0-2.33-.46l-1.18-.18-1.19-.09c-.79-.09-1.59-.06-2.39-.08s-1.58,0-2.36.16a27.51,27.51,0,0,0-4.53.88A32.24,32.24,0,0,0,188,180c-.63.28-1.24.57-1.8.89a17.72,17.72,0,0,0-1.62.95,16.23,16.23,0,0,0-1.43,1,13.13,13.13,0,0,0-1.25.94A22.33,22.33,0,0,0,180,185.4c-.52.48-.87.92-1.14,1.19Z" transform="translate(-28.09 -16.7)" fill="#577987"/><path d="M196.82,181.52l1.24.12c.79.11,1.93.21,3.27.41s2.93.4,4.61.67,3.47.6,5.25.84a23.54,23.54,0,0,0,5.2.22,12.28,12.28,0,0,0,4.35-1.13,9.55,9.55,0,0,0,2.63-1.84,9.85,9.85,0,0,0,.81-.95l-.16.29a5.21,5.21,0,0,1-.51.78,8.33,8.33,0,0,1-2.51,2.21,11.77,11.77,0,0,1-4.51,1.52,20.72,20.72,0,0,1-5.44-.11c-1.82-.27-3.6-.63-5.26-1s-3.22-.69-4.56-1-2.43-.58-3.2-.77Z" transform="translate(-28.09 -16.7)" fill="#577987"/><path d="M226.86,183l.84.79c.52.51,1.32,1.19,2.25,2s2.07,1.77,3.23,2.85a29.88,29.88,0,0,1,3.36,3.68,15.36,15.36,0,0,1,2.35,4.47,10.72,10.72,0,0,1,.43,4.39,8.26,8.26,0,0,1-.89,3,7.3,7.3,0,0,1-.45.73l-.18.24a8.86,8.86,0,0,0,.45-1,9.09,9.09,0,0,0,.51-2.92,11.38,11.38,0,0,0-.7-4.06,16.51,16.51,0,0,0-2.32-4.16,35.25,35.25,0,0,0-3.18-3.65l-3-3.07A29.36,29.36,0,0,1,226.86,183Z" transform="translate(-28.09 -16.7)" fill="#577987"/><path d="M189.3,188.63l1.46.88c.46.29,1,.61,1.7,1s1.4.76,2.23,1.16,1.73.84,2.71,1.26,2,.79,3.08,1.22,2.21.77,3.38,1.09,2.35.62,3.54.92,2.4.51,3.6.66,2.37.31,3.52.44,2.26.18,3.31.19,2.06.05,3,0,1.77-.06,2.52-.12,1.41-.09,1.95-.16L227,197l-1.66.37c-.53.13-1.19.23-1.94.34l-1.19.19c-.42,0-.87.07-1.34.12-.93.1-1.94.13-3,.16s-2.21,0-3.38-.05-2.37-.15-3.59-.36-2.45-.41-3.68-.64-2.43-.58-3.6-1-2.31-.79-3.41-1.19-2.13-.88-3.08-1.38-1.86-.94-2.66-1.42c-.41-.24-.8-.45-1.16-.68l-1-.67c-.63-.42-1.18-.79-1.61-1.12Z" transform="translate(-28.09 -16.7)" fill="#577987"/><path d="M269.93,182.4l-.6-.23a9.72,9.72,0,0,0-1.75-.38,8.58,8.58,0,0,0-2.76.13,8.37,8.37,0,0,0-3.22,1.43,8.31,8.31,0,0,0-3.25,7.7,26.05,26.05,0,0,0,1.38,4.85,12,12,0,0,1,.82,5.42,11.44,11.44,0,0,1-2.18,5.05c-1,1.46-2.18,2.77-3.19,4.08a17.57,17.57,0,0,0-2.46,4,10.68,10.68,0,0,0-.79,4.09,25.51,25.51,0,0,0,.93,6.33l.63,2.36s-.32-.83-.82-2.31c-.24-.74-.53-1.65-.78-2.72a17.38,17.38,0,0,1-.53-3.65,13,13,0,0,1,.12-2.13c0-.37.14-.75.21-1.13a10.84,10.84,0,0,1,.35-1.11,16.36,16.36,0,0,1,2.45-4.26c1-1.35,2.13-2.66,3.11-4.08a10.52,10.52,0,0,0,2-4.64,11.17,11.17,0,0,0-.71-5,25.8,25.8,0,0,1-1.36-5.07,8.46,8.46,0,0,1,.88-4.88,8.8,8.8,0,0,1,2.91-3.35,8.22,8.22,0,0,1,3.48-1.34,8.86,8.86,0,0,1,2.85,0,8.23,8.23,0,0,1,1.74.52Z" transform="translate(-28.09 -16.7)" fill="#577987"/><path d="M284.89,191.5l1.08,1.43a18.53,18.53,0,0,0,1.28,1.61c.5.61,1.08,1.28,1.76,2s1.4,1.45,2.21,2.21,1.74,1.48,2.65,2.27,1.95,1.49,3,2.17,2.17,1.36,3.28,2,2.27,1.21,3.44,1.7,2.33,1,3.46,1.39c.57.21,1.14.36,1.69.55s1.1.36,1.64.49c1.07.29,2.09.54,3.05.7s1.83.34,2.61.43,1.47.21,2,.24l1.79.15-1.8,0a18.85,18.85,0,0,1-2.06,0l-1.27-.07c-.45,0-.92-.12-1.4-.18-1-.11-2-.32-3.14-.55s-2.25-.57-3.44-.91-2.38-.8-3.55-1.35-2.37-1.12-3.55-1.71-2.28-1.32-3.33-2.09-2.06-1.53-3-2.29-1.83-1.6-2.6-2.43-1.52-1.59-2.14-2.36c-.31-.38-.62-.73-.89-1.09l-.74-1c-.47-.65-.86-1.22-1.15-1.72Z" transform="translate(-28.09 -16.7)" fill="#577987"/><path d="M287.14,190.16l1.24.91c.38.3.87.64,1.43,1s1.2.8,1.9,1.24,1.48.91,2.31,1.37,1.74.9,2.65,1.38,1.91.9,2.92,1.3,2.05.78,3.08,1.16,2.1.69,3.16,1,2.09.52,3.1.75,2,.4,2.95.51,1.83.26,2.66.32,1.59.13,2.27.17,1.27.07,1.75.06l1.54,0-1.53.17c-.49.05-1.08.08-1.76.11a21.65,21.65,0,0,1-2.3,0c-.84,0-1.76-.07-2.72-.15s-2-.22-3-.38-2.12-.37-3.19-.68-2.15-.61-3.23-.93-2.12-.77-3.13-1.22-2-.94-2.94-1.4-1.82-1-2.63-1.54-1.58-1-2.25-1.53a21.65,21.65,0,0,1-1.81-1.42c-.53-.44-1-.82-1.33-1.16Z" transform="translate(-28.09 -16.7)" fill="#577987"/><path d="M276,195.91s-.06.47-.15,1.3c-.05.41-.14.91-.24,1.49a17.7,17.7,0,0,1-.42,1.91c-.17.7-.39,1.44-.64,2.22s-.56,1.6-.89,2.44-.71,1.69-1.16,2.52-.92,1.67-1.39,2.5-1,1.62-1.61,2.37-1.15,1.48-1.71,2.18-1.18,1.33-1.78,1.89-1.14,1.12-1.69,1.58a18.14,18.14,0,0,1-1.52,1.24c-.46.35-.86.65-1.21.88l-1.1.73,1-.88c.62-.54,1.47-1.37,2.46-2.38.51-.49,1-1.06,1.55-1.67s1.06-1.28,1.63-1.95,1.09-1.42,1.61-2.18,1-1.54,1.54-2.33,1-1.6,1.38-2.43.83-1.63,1.22-2.42.72-1.58,1-2.33.58-1.47.79-2.14c.46-1.34.81-2.46,1-3.27S276,195.91,276,195.91Z" transform="translate(-28.09 -16.7)" fill="#577987"/><path d="M280,178.83l.33-.47a9.44,9.44,0,0,1,1.08-1.23,10.92,10.92,0,0,1,2-1.57,10.73,10.73,0,0,1,3.08-1.28,11.14,11.14,0,0,1,8.2,1.23,11.83,11.83,0,0,1,3.53,3.21c1,1.28,1.81,2.66,2.79,3.86a9.14,9.14,0,0,0,3.49,2.85,16.24,16.24,0,0,0,4.34,1.17c2.93.4,5.82.65,8.1,1.63a8.89,8.89,0,0,1,2.8,1.83,7,7,0,0,1,1.5,2.08,5.39,5.39,0,0,1,.46,1.58c0,.37,0,.57,0,.57s0-.2-.09-.56a5.78,5.78,0,0,0-.58-1.5,6.75,6.75,0,0,0-1.58-1.89,9.14,9.14,0,0,0-2.76-1.59,16.71,16.71,0,0,0-3.71-.83c-1.35-.17-2.79-.25-4.3-.46a17,17,0,0,1-4.6-1.18,10.06,10.06,0,0,1-3.89-3.07c-1-1.3-1.83-2.69-2.75-3.93a11.09,11.09,0,0,0-3.24-3,11.5,11.5,0,0,0-3.88-1.46,10.23,10.23,0,0,0-3.75,0,11.23,11.23,0,0,0-5.09,2.44,13,13,0,0,0-1.16,1.12Z" transform="translate(-28.09 -16.7)" fill="#577987"/><path d="M354.2,217.34v.52a11.43,11.43,0,0,0,.72,3.66,13.07,13.07,0,0,0,1.32,2.61,14.78,14.78,0,0,0,5.3,4.9,9.27,9.27,0,0,0,.89.45c.31.14.64.3.95.41a13.73,13.73,0,0,0,2,.63,19.52,19.52,0,0,0,4.2.6,26.74,26.74,0,0,0,8.33-1,51.45,51.45,0,0,0,7-2.48c2-.87,3.66-1.63,4.81-2.18l1.82-.85-1.73,1c-1.12.62-2.69,1.56-4.66,2.52a43.6,43.6,0,0,1-7,2.8,27.66,27.66,0,0,1-8.61,1.13,20.83,20.83,0,0,1-4.39-.7,15.41,15.41,0,0,1-2.08-.7,17,17,0,0,1-1.92-.93,14.88,14.88,0,0,1-5.35-5.36,12.22,12.22,0,0,1-1.62-5.08,10,10,0,0,1,0-1.49Z" transform="translate(-28.09 -16.7)" fill="#577987"/><path d="M402.75,224.61l.78.51a9.27,9.27,0,0,1,.86.62,12.16,12.16,0,0,1,1.09.87c.39.33.79.71,1.2,1.13s.82.87,1.24,1.35.83,1,1.2,1.56.75,1.13,1.12,1.71.67,1.19.95,1.8.53,1.22.78,1.81.43,1.18.58,1.74a14.37,14.37,0,0,1,.4,1.6,11.68,11.68,0,0,1,.24,1.37c.06.41.11.76.13,1.06,0,.59.06.92.06.92s-.1-.32-.25-.89-.4-1.37-.73-2.31c-.15-.47-.35-1-.55-1.51s-.46-1.07-.69-1.65c-.52-1.12-1.11-2.3-1.78-3.44a38.34,38.34,0,0,0-2.15-3.22c-.38-.48-.73-1-1.1-1.4s-.71-.86-1.05-1.22c-.67-.74-1.24-1.35-1.67-1.75S402.75,224.61,402.75,224.61Z" transform="translate(-28.09 -16.7)" fill="#577987"/><path d="M362.24,202.25l-.11.44a11.65,11.65,0,0,0-.22,1.25,12.46,12.46,0,0,0,.3,4.46A13.88,13.88,0,0,0,365,214a14.25,14.25,0,0,0,1.2,1.27,15.13,15.13,0,0,0,1.35,1.15,17.65,17.65,0,0,0,3.11,1.91,23.11,23.11,0,0,0,6.92,2,33.36,33.36,0,0,0,6.36.23c1.87-.11,3.44-.27,4.53-.42l1.71-.23s-.6.17-1.68.42a40.61,40.61,0,0,1-4.51.79,30.38,30.38,0,0,1-6.52.08,22,22,0,0,1-7.24-2,18.89,18.89,0,0,1-3.27-2,13.14,13.14,0,0,1-1.42-1.27,13.37,13.37,0,0,1-1.22-1.38,13.88,13.88,0,0,1-2.68-6,11.7,11.7,0,0,1,.06-4.61,8.28,8.28,0,0,1,.36-1.24Z" transform="translate(-28.09 -16.7)" fill="#577987"/><path d="M382.31,205a5.59,5.59,0,0,0,0,.79,6.14,6.14,0,0,0,.37,2,7.67,7.67,0,0,0,.55,1.22,9.33,9.33,0,0,0,.83,1.25,15.89,15.89,0,0,0,2.32,2.32c.87.74,1.78,1.44,2.63,2.1s1.67,1.24,2.37,1.75l2.37,1.68a24.79,24.79,0,0,1-2.67-1.19,30.93,30.93,0,0,1-5.35-3.58,13.12,13.12,0,0,1-2.38-2.57,7.23,7.23,0,0,1-.79-1.43,6.37,6.37,0,0,1-.43-1.4,5.59,5.59,0,0,1,0-2.17A3.73,3.73,0,0,1,382.31,205Z" transform="translate(-28.09 -16.7)" fill="#577987"/><path d="M62.21,260.85l-.19-.5c-.12-.33-.33-.8-.51-1.42s-.42-1.39-.64-2.27l-.3-1.42c-.09-.51-.15-1-.23-1.6a30.16,30.16,0,0,1,.1-7.68,33.34,33.34,0,0,1,.94-4.24A33,33,0,0,1,63,237.5a29.6,29.6,0,0,1,5-7.24,30.21,30.21,0,0,1,6-4.84c.49-.28,1-.57,1.4-.81l1.3-.65c.83-.37,1.56-.69,2.17-.91s1.1-.37,1.43-.48l.51-.16-.49.21c-.32.14-.79.33-1.37.61s-1.29.63-2.08,1.06-1.64,1-2.56,1.6a31.69,31.69,0,0,0-2.8,2.19,34.91,34.91,0,0,0-2.83,2.77,33.52,33.52,0,0,0-2.61,3.32A31.81,31.81,0,0,0,63.89,238a31.11,31.11,0,0,0-1.62,4,33.06,33.06,0,0,0-1,4.11,34.84,34.84,0,0,0-.42,3.93,32.15,32.15,0,0,0,0,3.56c.09,1.1.2,2.11.33,3s.3,1.66.46,2.28.29,1.12.38,1.46Z" transform="translate(-28.09 -16.7)" fill="#577987"/><path d="M363.47,339.84a31.77,31.77,0,0,1,7-11.28" transform="translate(-28.09 -16.7)" fill="none" stroke="#de8f62" stroke-linejoin="round" stroke-width="1.03"/><path d="M367.7,339.85a41.14,41.14,0,0,1,7.4-10" transform="translate(-28.09 -16.7)" fill="none" stroke="#de8f62" stroke-linejoin="round" stroke-width="1.03"/><path d="M371.77,339.64a27.68,27.68,0,0,1,7.33-8.21" transform="translate(-28.09 -16.7)" fill="none" stroke="#de8f62" stroke-linejoin="round" stroke-width="1.03"/><path d="M409.7,302.81a36.72,36.72,0,0,0,2.06-12" transform="translate(-28.09 -16.7)" fill="none" stroke="#de8f62" stroke-linejoin="round" stroke-width="1.03"/><path d="M413.07,302.59a33.27,33.27,0,0,0,2-10.91" transform="translate(-28.09 -16.7)" fill="none" stroke="#de8f62" stroke-linejoin="round" stroke-width="1.03"/><path d="M416.54,302.13a37.34,37.34,0,0,0,1.59-9.85" transform="translate(-28.09 -16.7)" fill="none" stroke="#de8f62" stroke-linejoin="round" stroke-width="1.03"/><path d="M331.65,313.31a49.7,49.7,0,0,0,13.24-4.92" transform="translate(-28.09 -16.7)" fill="none" stroke="#de8f62" stroke-linejoin="round" stroke-width="1.03"/><path d="M333.33,317.57a53.31,53.31,0,0,0,12.42-4.94" transform="translate(-28.09 -16.7)" fill="none" stroke="#de8f62" stroke-linejoin="round" stroke-width="1.03"/><path d="M333.34,321.51a53.4,53.4,0,0,0,11.78-3.64" transform="translate(-28.09 -16.7)" fill="none" stroke="#de8f62" stroke-linejoin="round" stroke-width="1.03"/><path d="M86.85,334.71a15.74,15.74,0,0,1,6.81-7.34" transform="translate(-28.09 -16.7)" fill="none" stroke="#de8f62" stroke-linejoin="round" stroke-width="1.03"/><path d="M88.51,337.63a20.15,20.15,0,0,1,6.51-7.1" transform="translate(-28.09 -16.7)" fill="none" stroke="#de8f62" stroke-linejoin="round" stroke-width="1.03"/><path d="M91.81,338.36a22.08,22.08,0,0,1,6-5.65" transform="translate(-28.09 -16.7)" fill="none" stroke="#de8f62" stroke-linejoin="round" stroke-width="1.03"/><path d="M114.19,334.37a21.64,21.64,0,0,1,5,7" transform="translate(-28.09 -16.7)" fill="none" stroke="#de8f62" stroke-linejoin="round" stroke-width="1.03"/><path d="M118.1,333.22a26.61,26.61,0,0,1,5.56,6.8" transform="translate(-28.09 -16.7)" fill="none" stroke="#de8f62" stroke-linejoin="round" stroke-width="1.03"/><path d="M120.63,330.87a14.67,14.67,0,0,1,4.29,5.13" transform="translate(-28.09 -16.7)" fill="none" stroke="#de8f62" stroke-linejoin="round" stroke-width="1.03"/><path d="M51.5,311.55a37.52,37.52,0,0,0,4.69,10.06" transform="translate(-28.09 -16.7)" fill="none" stroke="#de8f62" stroke-linejoin="round" stroke-width="1.03"/><path d="M55.31,309.68a33.52,33.52,0,0,0,6,12.54" transform="translate(-28.09 -16.7)" fill="none" stroke="#de8f62" stroke-linejoin="round" stroke-width="1.03"/><path d="M59.22,307A42.53,42.53,0,0,0,66,320" transform="translate(-28.09 -16.7)" fill="none" stroke="#de8f62" stroke-linejoin="round" stroke-width="1.03"/><path d="M112.09,316.42a125.84,125.84,0,0,1,26.06-5.85" transform="translate(-28.09 -16.7)" fill="none" stroke="#e8a600" stroke-linejoin="round" stroke-width="1.03"/><path d="M131.48,311.21,125.61,301" transform="translate(-28.09 -16.7)" fill="none" stroke="#e8a600" stroke-linejoin="round" stroke-width="1.03"/><path d="M104.35,318.87A82,82,0,0,0,72.93,310" transform="translate(-28.09 -16.7)" fill="none" stroke="#e8a600" stroke-linejoin="round" stroke-width="1.03"/><path d="M106.25,331.46l9.12-3.19" transform="translate(-28.09 -16.7)" fill="none" stroke="#de8f62" stroke-linejoin="round" stroke-width="1.03"/><path d="M273.78,307.17l37.37,1.89" transform="translate(-28.09 -16.7)" fill="none" stroke="#e86171" stroke-linejoin="round" stroke-width="1.03"/><path d="M277.75,307.06l-4.18-26.77" transform="translate(-28.09 -16.7)" fill="none" stroke="#e86171" stroke-linejoin="round" stroke-width="1.03"/><path d="M417.36,312a21.65,21.65,0,0,1,5.32-1.73" transform="translate(-28.09 -16.7)" fill="none" stroke="#ffb600" stroke-linejoin="round" stroke-width="1.03"/><path d="M410.42,312.66a50.1,50.1,0,0,0-9.81-15.22" transform="translate(-28.09 -16.7)" fill="none" stroke="#ffb600" stroke-linejoin="round" stroke-width="1.03"/><path d="M134.6,280.33l23.62-13.9" transform="translate(-28.09 -16.7)" fill="none" stroke="#217edb" stroke-linejoin="round" stroke-width="1.03"/><path d="M229,293a36.47,36.47,0,0,0,.11-21" transform="translate(-28.09 -16.7)" fill="none" stroke="#217edb" stroke-linejoin="round" stroke-width="1.03"/><path d="M335.24,280.26a25.44,25.44,0,0,0-7.73-4.47" transform="translate(-28.09 -16.7)" fill="none" stroke="#e86171" stroke-linejoin="round" stroke-width="1.03"/><path d="M388.5,250a2.44,2.44,0,0,1,.33,2.1,2.5,2.5,0,0,1-1.32,1.59c-1.59.7-3.11-1-2.71-2.59S387.4,248.53,388.5,250Z" transform="translate(-28.09 -16.7)" fill="#32586b"/><path d="M362.53,246.75a2.42,2.42,0,0,1,.33,2.09,2.5,2.5,0,0,1-1.32,1.6c-1.59.7-3.11-1-2.71-2.6S361.43,245.25,362.53,246.75Z" transform="translate(-28.09 -16.7)" fill="#32586b"/><path d="M307.56,220.61a2.56,2.56,0,0,1-1,3.69c-1.6.71-3.11-1-2.71-2.59S306.46,219.12,307.56,220.61Z" transform="translate(-28.09 -16.7)" fill="#32586b"/><path d="M280.32,226.06a2.42,2.42,0,0,1,.33,2.09,2.47,2.47,0,0,1-1.32,1.6c-1.59.7-3.1-1-2.7-2.59S279.22,224.56,280.32,226.06Z" transform="translate(-28.09 -16.7)" fill="#32586b"/><path d="M218,225.41a2.56,2.56,0,0,1-1,3.69c-1.6.71-3.11-1-2.71-2.59S216.87,223.92,218,225.41Z" transform="translate(-28.09 -16.7)" fill="#32586b"/><path d="M115.23,264.55a2.44,2.44,0,0,1,.33,2.1,2.5,2.5,0,0,1-1.32,1.59c-1.59.7-3.11-1-2.71-2.59S114.13,263.06,115.23,264.55Z" transform="translate(-28.09 -16.7)" fill="#32586b"/><path d="M91.68,265.13a2.56,2.56,0,0,1-1,3.69c-1.59.71-3.11-1-2.71-2.59S90.58,263.64,91.68,265.13Z" transform="translate(-28.09 -16.7)" fill="#32586b"/><path d="M187.88,218a2.56,2.56,0,0,1-1,3.69c-1.59.7-3.11-1-2.71-2.59S186.78,216.54,187.88,218Z" transform="translate(-28.09 -16.7)" fill="#32586b"/><path d="M395.68,242.66a3.87,3.87,0,0,1,1.28,1,1.48,1.48,0,0,1,.21,1.52c-.39.72-1.38.79-2.19.7a16.55,16.55,0,0,1-6.41-2.07,3.22,3.22,0,0,1-1.59-1.54C385.54,238.47,394.63,242.1,395.68,242.66Z" transform="translate(-28.09 -16.7)" fill="#32586b"/><path d="M355.7,236.41a3.81,3.81,0,0,0-1.52.51,1.46,1.46,0,0,0-.69,1.38c.13.8,1.05,1.19,1.84,1.36a16.59,16.59,0,0,0,6.73.12,3.29,3.29,0,0,0,2-.94C366.66,235.73,356.88,236.22,355.7,236.41Z" transform="translate(-28.09 -16.7)" fill="#32586b"/><path d="M374.42,244.74l-2.21,10.73c-1-.75-1.89-1.62-3.14-1.7a4.2,4.2,0,0,0-3.38,1.31,3.09,3.09,0,0,0-.42,3.49,3.49,3.49,0,0,0,1.85,1.46,10.49,10.49,0,0,0,2.35.51" transform="translate(-28.09 -16.7)" fill="none" stroke="#de8f62" stroke-linejoin="round" stroke-width="1.03"/><path d="M408.22,256.36a7.17,7.17,0,0,1,7.11-1" transform="translate(-28.09 -16.7)" fill="none" stroke="#de8f62" stroke-linejoin="round" stroke-width="1.03"/><path d="M411.29,255.47a8.09,8.09,0,0,1,1.4,5" transform="translate(-28.09 -16.7)" fill="none" stroke="#de8f62" stroke-linejoin="round" stroke-width="1.03"/><path d="M371.93,273.62a14.35,14.35,0,0,0,14.41-9.5c0,2,.19,5.24-.38,7.17a7.7,7.7,0,0,1-3.51,4.72,7.21,7.21,0,0,1-5.15.44A18.83,18.83,0,0,1,371.93,273.62Z" transform="translate(-28.09 -16.7)" fill="#fff"/><circle cx="365.89" cy="243.84" r="5.41" fill="#ff7976" opacity="0.3"/><circle cx="325.71" cy="241.59" r="5.41" fill="#ff7976" opacity="0.3"/><circle cx="285.95" cy="210.92" r="5.41" fill="#ff7976" opacity="0.3"/><circle cx="245.84" cy="220.06" r="5.41" fill="#ff7976" opacity="0.3"/><circle cx="190.85" cy="221.45" r="5.41" fill="#ff7976" opacity="0.3"/><circle cx="149.37" cy="211.38" r="5.41" fill="#ff7976" opacity="0.3"/><path d="M124,269.42a48.84,48.84,0,0,1-.87,6.92c-.21,1.05-.45,2.09-.74,3.13a4.62,4.62,0,0,1-1,.1,5.41,5.41,0,1,1,0-10.82A5.32,5.32,0,0,1,124,269.42Z" transform="translate(-28.09 -16.7)" fill="#ff7976" opacity="0.3"/><circle cx="54.87" cy="259.78" r="5.41" fill="#ff7976" opacity="0.3"/><path d="M276.3,219.93c.26-.13.54-.29.61-.57a.69.69,0,0,0-.41-.73,1.75,1.75,0,0,0-.88-.11,8.74,8.74,0,0,0-4.2,1.45c-.74.48-3.13,2.22-2.47,3.33.57,1,2-.52,2.6-.9C273.07,221.47,274.72,220.74,276.3,219.93Z" transform="translate(-28.09 -16.7)" fill="#32586b"/><path d="M311.23,215.65a1,1,0,0,0,.83-.1.69.69,0,0,0,.1-.83,1.81,1.81,0,0,0-.65-.61,8.86,8.86,0,0,0-4.25-1.31c-.87-.05-3.83-.06-4,1.23-.1,1.11,1.91.75,2.64.81C307.71,215,309.48,215.38,311.23,215.65Z" transform="translate(-28.09 -16.7)" fill="#32586b"/><path d="M291.82,221.65l1.38,9.46a4.82,4.82,0,0,0-3.55,1.57,3.32,3.32,0,1,0,5.16,4.18" transform="translate(-28.09 -16.7)" fill="none" stroke="#de8f62" stroke-linejoin="round" stroke-width="1.03"/><path d="M322.24,219a4.31,4.31,0,0,1,6.29-1.41" transform="translate(-28.09 -16.7)" fill="none" stroke="#de8f62" stroke-linejoin="round" stroke-width="1.03"/><path d="M324.5,217.24a6.45,6.45,0,0,1,2.38,4.16" transform="translate(-28.09 -16.7)" fill="none" stroke="#de8f62" stroke-linejoin="round" stroke-width="1.03"/><path d="M261.15,231.38a5.32,5.32,0,0,0-6.13,2.44" transform="translate(-28.09 -16.7)" fill="none" stroke="#de8f62" stroke-linejoin="round" stroke-width="1.03"/><path d="M258.17,231.36a5,5,0,0,0,.84,4.91" transform="translate(-28.09 -16.7)" fill="none" stroke="#de8f62" stroke-linejoin="round" stroke-width="1.03"/><path d="M298.13,246.59a28,28,0,0,0,11.1-12.51,25.14,25.14,0,0,1,1.57,5.32,6.93,6.93,0,0,1-6.4,8.15C302.32,247.88,300.22,246.85,298.13,246.59Z" transform="translate(-28.09 -16.7)" fill="#fff"/><path d="M202.67,219.59l-2.62,10.22a3.9,3.9,0,0,1,3.66,1,3.32,3.32,0,0,1,.45,3.46,3.86,3.86,0,0,1-3.07,2,6,6,0,0,1-3.69-.91" transform="translate(-28.09 -16.7)" fill="none" stroke="#de8f62" stroke-linejoin="round" stroke-width="1.03"/><path d="M230.05,232.19a4.92,4.92,0,0,1,3.73-1.5,4.85,4.85,0,0,1,3.56,1.87" transform="translate(-28.09 -16.7)" fill="none" stroke="#de8f62" stroke-linejoin="round" stroke-width="1.03"/><path d="M233.43,230.64a8.76,8.76,0,0,1,.81,6.11" transform="translate(-28.09 -16.7)" fill="none" stroke="#de8f62" stroke-linejoin="round" stroke-width="1.03"/><path d="M169.69,220.75a5.52,5.52,0,0,0-7.4-.81" transform="translate(-28.09 -16.7)" fill="none" stroke="#de8f62" stroke-linejoin="round" stroke-width="1.03"/><path d="M167,219a5.83,5.83,0,0,0-2.82,4.58" transform="translate(-28.09 -16.7)" fill="none" stroke="#de8f62" stroke-linejoin="round" stroke-width="1.03"/><path d="M101.73,262.05l1.66,10.12a9.16,9.16,0,0,1,1.63-1,3.26,3.26,0,0,1,2.38.18,2.47,2.47,0,0,1,1,2.82,3.4,3.4,0,0,1-2.3,2.11,5.48,5.48,0,0,1-3.18-.12" transform="translate(-28.09 -16.7)" fill="none" stroke="#de8f62" stroke-linejoin="round" stroke-width="1.03"/><path d="M67.2,270.68a4.63,4.63,0,0,0-6.86.75" transform="translate(-28.09 -16.7)" fill="none" stroke="#de8f62" stroke-linejoin="round" stroke-width="1.03"/><path d="M64.62,269.64a7.82,7.82,0,0,0-1.5,5.74" transform="translate(-28.09 -16.7)" fill="none" stroke="#de8f62" stroke-linejoin="round" stroke-width="1.03"/><path d="M222.16,220.2c.84.37,2,.59,2.58-.1s.28-1.74-.2-2.51a8.35,8.35,0,0,0-5.89-3.8c-2.36-.32-2.75,1.25-1.42,2.86A13.21,13.21,0,0,0,222.16,220.2Z" transform="translate(-28.09 -16.7)" fill="#32586b"/><path d="M183.6,210.68c-.92-.06-2-.36-2.26-1.25s.53-1.68,1.3-2.15a8.35,8.35,0,0,1,7-.76c2.24.77,1.88,2.35,0,3.19A13.25,13.25,0,0,1,183.6,210.68Z" transform="translate(-28.09 -16.7)" fill="#32586b"/><path d="M117.68,256.79c.36.08.81.12,1-.19a.8.8,0,0,0-.17-.8,5.83,5.83,0,0,0-3.07-2.51,3.46,3.46,0,0,0-3.68,1c-1.11,1.37.91,1.38,1.88,1.6Z" transform="translate(-28.09 -16.7)" fill="#32586b"/><path d="M86.73,256.79c-.36.08-.81.12-1-.19a.8.8,0,0,1,.17-.8A5.83,5.83,0,0,1,89,253.29a3.46,3.46,0,0,1,3.68,1c1.11,1.37-.91,1.38-1.88,1.6Z" transform="translate(-28.09 -16.7)" fill="#32586b"/><path d="M188,235.21a57,57,0,0,0,7.68,9.15,5.89,5.89,0,0,1-4.23,2.42,5,5,0,0,1-4-2,6.55,6.55,0,0,1-1-4.45A22.94,22.94,0,0,1,188,235.21Z" transform="translate(-28.09 -16.7)" fill="#fff"/><path d="M90.66,278.29a18.93,18.93,0,0,0,12.1,10.8,6.14,6.14,0,0,1-6.52,1.41,8.43,8.43,0,0,1-4.7-4.81A17.93,17.93,0,0,1,90.66,278.29Z" transform="translate(-28.09 -16.7)" fill="#fff"/></svg>