<svg xmlns="http://www.w3.org/2000/svg" width="156.219" height="153.198" viewBox="0 0 156.219 153.198">
  <g id="box" transform="translate(-2184.457 -620.407)">
    <path id="Path_6822" data-name="Path 6822" d="M2358.975,813.06l-45.57,16.509v52.25l45.57-17.444Z" transform="translate(-88.336 -131.684)" fill="#f0efec" stroke="#ccc" stroke-miterlimit="10" stroke-width="1"/>
    <path id="Path_6823" data-name="Path 6823" d="M2505.507,829.569l-45.57-16.509v51.316l45.57,17.444Z" transform="translate(-189.225 -131.684)" fill="#f0efec" stroke="#ccc" stroke-miterlimit="10" stroke-width="1"/>
    <path id="Path_6824" data-name="Path 6824" d="M2358.975,941.5l-45.57-22.427v-52.25l45.57,17.443Z" transform="translate(-88.336 -168.702)" fill="#fdf7f7" stroke="#ccc" stroke-miterlimit="10" stroke-width="1"/>
    <path id="Path_6825" data-name="Path 6825" d="M2505.507,919.076l-45.57,22.427V884.269l45.57-17.443Z" transform="translate(-189.225 -168.702)" fill="#fdf7f7" stroke="#ccc" stroke-miterlimit="10" stroke-width="1"/>
    <path id="Path_6826" data-name="Path 6826" d="M2514.851,879.206l-45.57,22.427-9.345-17.364,45.57-17.443Z" transform="translate(-189.225 -168.702)" fill="#fff" stroke="#ccc" stroke-miterlimit="10" stroke-width="1"/>
    <path id="Path_6827" data-name="Path 6827" d="M2338.146,884.428l-45.8-17.6L2283,879.206l45.57,22.427Z" transform="translate(-67.402 -168.702)" fill="#fff" stroke="#ccc" stroke-miterlimit="10" stroke-width="1"/>
    <path id="Path_6828" data-name="Path 6828" d="M2514.851,790.441l-44.636-16.509L2459.937,786l45.57,16.821Z" transform="translate(-189.225 -104.744)" fill="#fff" stroke="#ccc" stroke-miterlimit="10" stroke-width="1"/>
    <path id="Path_6829" data-name="Path 6829" d="M2338.146,785.842l-45.8,16.979L2283,789.2l45.57-15.263Z" transform="translate(-67.402 -104.744)" fill="#fff" stroke="#ccc" stroke-miterlimit="10" stroke-width="1"/>
    <path id="Path_6830" data-name="Path 6830" d="M2471.326,711.553s25.052-20.757,10.021-49.387c0,0-6.442-11.452-22.666-16.7" transform="translate(-188.361 -16.292)" fill="none" stroke="#ccc" stroke-miterlimit="10" stroke-width="1" stroke-dasharray="2"/>
    <path id="Path_6831" data-name="Path 6831" d="M2308.979,704.1s-24.725,25.581-10.639,35.192" transform="translate(-74.977 -56.665)" fill="none" stroke="#ccc" stroke-miterlimit="10" stroke-width="1" stroke-dasharray="2"/>
    <path id="Path_6832" data-name="Path 6832" d="M2208.539,755.86s-12.593,7.26-18.662,21.124c-8.45,19.3-8.162,46.693,21.645,43.237" transform="translate(0 -92.301)" fill="none" stroke="#ccc" stroke-miterlimit="10" stroke-width="1" stroke-dasharray="2"/>
    <path id="Path_6833" data-name="Path 6833" d="M2562.9,751.662s4.576-32.21-25.8-43.286c0,0-12.47-4.142-28.006,2.887" transform="translate(-223.065 -58.773)" fill="none" stroke="#ccc" stroke-miterlimit="10" stroke-width="1" stroke-dasharray="2"/>
    <circle id="Ellipse_481" data-name="Ellipse 481" cx="2.439" cy="2.439" r="2.439" transform="translate(2223.61 684.445)" fill="none" stroke="#ccc" stroke-miterlimit="10" stroke-width="1" stroke-dasharray="6"/>
    <circle id="Ellipse_482" data-name="Ellipse 482" cx="2.969" cy="2.969" r="2.969" transform="translate(2214.385 723.997)" fill="none" stroke="#ccc" stroke-miterlimit="10" stroke-width="1" stroke-dasharray="2"/>
    <circle id="Ellipse_483" data-name="Ellipse 483" cx="3.976" cy="3.976" r="3.976" transform="translate(2250.597 624.533)" fill="none" stroke="#ccc" stroke-miterlimit="10" stroke-width="1" stroke-dasharray="2"/>
    <circle id="Ellipse_484" data-name="Ellipse 484" cx="2.174" cy="2.174" r="2.174" transform="translate(2326.309 694.625)" fill="none" stroke="#ccc" stroke-miterlimit="10" stroke-width="1" stroke-dasharray="2"/>
    <path id="Path_6834" data-name="Path 6834" d="M2581.109,628.193l5.13,1.815-4.3,3.34-1.5,6.825-3.654-5.99-5.13-1.815,4.3-3.341,1.228-7.226Z" transform="translate(-266.147 0)" fill="none" stroke="#ccc" stroke-miterlimit="10" stroke-width="1" stroke-dasharray="2"/>
    <path id="Path_6835" data-name="Path 6835" d="M2231.554,845.819l4.218,1.492-3.532,2.746-1.234,5.611-3-4.925-4.218-1.492,3.532-2.746,1.01-5.941Z" transform="translate(-26.631 -150.621)" fill="none" stroke="#ccc" stroke-miterlimit="10" stroke-width="1" stroke-dasharray="2"/>
  </g>
</svg>
