<svg xmlns="http://www.w3.org/2000/svg" xmlns:xlink="http://www.w3.org/1999/xlink" width="592.124" height="203.229" viewBox="0 0 592.124 203.229">
  <defs>
    <linearGradient id="linear-gradient" x1="0.5" x2="0.5" y2="1" gradientUnits="objectBoundingBox">
      <stop offset="0" stop-color="#57bddb"/>
      <stop offset="1" stop-color="#e598b2"/>
    </linearGradient>
  </defs>
  <g id="bg_2" transform="translate(-1020.561 -821.773)" opacity="0.5">
    <path id="Subtraction_2" data-name="Subtraction 2" d="M-1647.936,3343.228h-589.593a206.884,206.884,0,0,1,19.9-27.056c8.14-9.136,22.044-21.789,37.193-33.846,15.825-12.6,30.782-22.8,41.037-27.988,17.723-8.971,40.718-13.52,68.345-13.52,12.167,0,22.395.866,29.163,1.439l.036,0c1.8.153,3.36.284,4.577.366,4.26.285,9.8.884,16.219,1.578,16.116,1.742,38.181,4.128,62.847,4.128,10.315,0,20.341-.428,29.8-1.272a263.336,263.336,0,0,0,30.849-4.539c22.553-4.761,42.672-12.574,59.8-23.221,20.717-12.88,30.315-30.191,38.783-45.463,4.265-7.693,8.294-14.959,13.263-20.591,5.518-6.255,11.619-9.856,19.2-11.333a48.28,48.28,0,0,1,9.2-.911,44.284,44.284,0,0,1,8.465.816,46.634,46.634,0,0,1,7.932,2.311,61.756,61.756,0,0,1,14.554,8.279c9.047,6.742,17.074,15.491,25.882,25.4,3.661,4.118,7.5,8.172,11.219,12.093l.006.006c6.945,7.328,14.126,14.906,20.225,23.026a106.175,106.175,0,0,1,8.327,12.785,82.3,82.3,0,0,1,6.236,14.368,152.172,152.172,0,0,1,6.417,33.144c.984,10.688,1.206,21.309,1.238,33.968.027,10.858-.085,23.63-1.119,36.034Z" transform="translate(3259 -2318.727)" stroke="rgba(0,0,0,0)" stroke-miterlimit="10" stroke-width="1" fill="url(#linear-gradient)"/>
    <path id="Subtraction_3" data-name="Subtraction 3" d="M-2162.178,3307.154l-7.1,0a96.707,96.707,0,0,1-16.877-7.237,6.571,6.571,0,0,1-3.386-3.3,6.76,6.76,0,0,1,.062-3.742l2.263-10.413a1.025,1.025,0,0,1,.531-.691,1.041,1.041,0,0,1,.469-.113,1.016,1.016,0,0,1,.4.082A283.654,283.654,0,0,0-2152,3293.76a357,357,0,0,1-29.634-23.316,1.024,1.024,0,0,1-.252-1.2c3.819-8.182,10.305-14.737,16.577-21.076l.014-.014c6.528-6.591,13.278-13.407,16.783-21.953a1.025,1.025,0,0,1,.858-.63c.029,0,.058,0,.087,0a1.016,1.016,0,0,1,.863.475c2.57,4.062,7.624,5.49,12.7,6.429a1.017,1.017,0,0,1,.473-.427,1.014,1.014,0,0,1,.416-.089,1.024,1.024,0,0,1,.933.6c.044.1.077.175.108.249l.362.06.106.018.095.016.445.074c8.948,1.483,14.178,4.618,15.989,9.584.964,2.639.888,5.578-.239,9.248a32.465,32.465,0,0,0,3.546-5.642,1.018,1.018,0,0,1,.652-.535,1.018,1.018,0,0,1,.267-.036,1.011,1.011,0,0,1,.564.171c6.623,4.422,13.127,9.212,19.332,14.239h.043a1.018,1.018,0,0,1,1.009.857,261.955,261.955,0,0,1,20.136,18.324,1.014,1.014,0,0,1,.049,1.384l-.01.009-17.066,19.312c-2.129,2.41-4.331,4.9-6.8,7.26h-3.009a95.152,95.152,0,0,0,8.28-8.613l16.433-18.593c-5.678-5.7-11.718-11.21-17.952-16.386a25.335,25.335,0,0,1-.441,3.414c-1.5,7.845-5.74,15.731-12.947,24.11-.362.421-.743.855-1.132,1.292-2.794,3.135-5.79,6.153-8.687,9.071l-.1.1-.025.025c-1.8,1.808-3.654,3.677-5.457,5.575h-2.8c2.245-2.419,4.571-4.762,6.821-7.028l.116-.117.046-.047.011-.011c2.861-2.882,5.818-5.861,8.554-8.932,7.644-8.593,12.092-16.583,13.6-24.427a19.918,19.918,0,0,0,.418-4.7c-5.98-4.864-12.238-9.5-18.6-13.788a34.322,34.322,0,0,1-7,9.031,1.022,1.022,0,0,1-.693.271,1.013,1.013,0,0,1-.59-.188,1.026,1.026,0,0,1-.347-1.24c1.928-4.456,3.54-8.781,2.1-12.717-1.306-3.579-4.868-6.049-10.889-7.551-1.08-.269-2.263-.511-3.516-.719h-.01a11.786,11.786,0,0,1-.28,5.782c-1.028,3.313-3.372,5.813-5.639,8.23l-.042.045a26.524,26.524,0,0,0-4.538,5.832c-.018.035-.036.066-.055.1,1.861,7.041,4.046,13.9,5.938,19.677a1.025,1.025,0,0,1,.259.792c.55,1.673,1.11,3.365,1.653,5l.008.025.285.86,8.57,25.819h-2.153l-4.353-13.115c-9.615-2.74-17.265-9.464-24.663-15.967-6.164-5.416-12.535-11.015-19.982-14.233a43.637,43.637,0,0,0-3.3,5.581,354.758,354.758,0,0,0,33.787,26.065,1.016,1.016,0,0,1,.355,1.266,1.011,1.011,0,0,1-.927.6,1.022,1.022,0,0,1-.261-.034,285.3,285.3,0,0,1-38.737-13.217l-2,9.2a5.018,5.018,0,0,0-.132,2.634,4.953,4.953,0,0,0,2.447,2.2,103.854,103.854,0,0,0,22.989,9.023Zm-7.582-51.441h0a80.911,80.911,0,0,0-5.415,6.429c7.558,3.364,13.936,8.969,20.1,14.388l0,0c7.2,6.326,13.992,12.3,22.528,15.124l-3.214-9.681c-.658-1.983-1.3-3.929-1.962-5.937-4.131-1.911-7.537-4.985-10.831-7.959-1.418-1.281-3.025-2.733-4.632-4.007a46.466,46.466,0,0,0-16.582-8.361Zm21.207-24.7h0c-3.863,7.032-9.66,12.892-15.267,18.559l-.019.019-.009.009c-1.355,1.368-2.891,2.919-4.338,4.435a48.636,48.636,0,0,1,16.275,8.437c1.6,1.27,3.15,2.663,4.644,4.01l.091.082a51.023,51.023,0,0,0,8.559,6.71c-4.313-13.3-8.5-27.629-9.936-42.261Zm1.894-1.711a144.5,144.5,0,0,0,3.985,22.89,38.305,38.305,0,0,1,3.862-4.584l.025-.027c2.2-2.352,4.273-4.572,5.154-7.412a9.8,9.8,0,0,0,.04-5.551c-4.826-.854-9.75-2.09-13.066-5.316Zm-90.369,77.85h-1.865c-3.215-7.224-4.537-15.455-5.616-23.265a1,1,0,0,1,.25-.775.827.827,0,0,1,.609-.3.729.729,0,0,1,.447.161,33,33,0,0,1,8.635,10.544,66.3,66.3,0,0,1,5.453,13.638h-1.781c-2.778-9.556-6.791-16.943-11.606-21.362.97,6.747,2.272,14.519,5.473,21.362Zm149.667,0h-3.8c8.5-5.006,15.651-13.385,22.241-21.538a.971.971,0,0,1,.785-.377,1.046,1.046,0,0,1,.631.21c7.228,5.557,13.873,11.215,15.778,19.309.167.712.3,1.473.431,2.4h-2.062c-.1-.719-.221-1.349-.358-1.928-1.727-7.339-7.985-12.694-14.247-17.55-6.761,8.323-12.648,14.821-19.4,19.478Zm-117.036,0h-2.785c2.266-1.793,4.546-3.466,6.476-4.866a1.013,1.013,0,0,1,.594-.178.933.933,0,0,1,.71.287.673.673,0,0,1,.139.562,25.966,25.966,0,0,1-1.055,4.194h-1.775c.262-.741.491-1.489.679-2.225-1.089.8-2.065,1.526-2.982,2.225Zm-21.321,0h-2.069a39.622,39.622,0,0,1,2.651-9.731l0-.011v-.008l0-.01a.813.813,0,0,1,.107-.562c1.474-7.669,2.986-13.952,5.574-19.686,3.079-6.822,7.319-11.83,12.962-15.311a.849.849,0,0,1,.452-.125,1.127,1.127,0,0,1,.823.381.909.909,0,0,1,.245.708,47.545,47.545,0,0,1-6.356,18.587,122.493,122.493,0,0,1-11.572,16.09c-.09.194-.173.385-.245.549,0,.006,0,.012,0,.018l0,.015a.969.969,0,0,1-.2.44,37.418,37.418,0,0,0-2.375,8.655Zm18.366-42.248c-9.243,6.7-12.592,17.555-14.834,28.284l.035.01.038.012c7.617-9.551,13.043-18.02,14.761-28.307Zm85.639,31.867a2.1,2.1,0,0,1-.505-.06,1.867,1.867,0,0,1-1.1-.785c-1.832-2.715,2.243-12.234,2.961-13.213a34.966,34.966,0,0,1,2.8-3.214c1.007-1.059,1.9-2.066,2.719-3.081a15.768,15.768,0,0,1,4.369-4.163,2.928,2.928,0,0,1,1.424-.419,1.758,1.758,0,0,1,1.189.433,2.37,2.37,0,0,1,.574,2.229l-1.322,8.515v.005a9.44,9.44,0,0,1-.686,2.634,6.467,6.467,0,0,1-.986,1.485,16.483,16.483,0,0,1-1.332,1.337l-.017.015-7.587,7.029a4.344,4.344,0,0,1-1.851,1.167A2.642,2.642,0,0,1-2121.713,3296.771Zm12.443-22.832a1.617,1.617,0,0,0-.2.1,14.294,14.294,0,0,0-3.785,3.67c-.85,1.049-1.773,2.1-2.821,3.2l-.1.109-.01.01a30.1,30.1,0,0,0-2.525,2.9c-1.029,1.4-3.8,9.7-2.913,10.864a3.941,3.941,0,0,0,1.024-.765l7.588-7.031a7.874,7.874,0,0,0,1.872-2.209,7.731,7.731,0,0,0,.518-2.084l1.323-8.512C-2109.285,3274.083-2109.276,3274-2109.27,3273.939Zm-9.393-3.291a1.019,1.019,0,0,1-.246-.03,1.028,1.028,0,0,1-.4-.2l-.025,0-.033-.005a1.014,1.014,0,0,1-.66-.423,1.009,1.009,0,0,1-.166-.761,15.243,15.243,0,0,1,6.129-9.663,1.017,1.017,0,0,1,.591-.188,1.021,1.021,0,0,1,.488.125,1.012,1.012,0,0,1,.533.94l-.264,6.139a1.027,1.027,0,0,1-.246.621c-.022.024-.044.049-.067.071a15.556,15.556,0,0,1-5.274,3.317A1,1,0,0,1-2118.663,3270.648Zm4.068-7.968h0a13.178,13.178,0,0,0-3.253,5.484,13.546,13.546,0,0,0,3.107-2.1l.146-3.386Zm88.784.935a1,1,0,0,1-.859-.5c-2.15-3.43-4.443-6.825-6.817-10.088a.156.156,0,0,0-.033.012.135.135,0,0,1-.038.014,120.08,120.08,0,0,1-18.511,1.479,81.171,81.171,0,0,1-19.481-2.138,40.082,40.082,0,0,1-14.3-6.366.882.882,0,0,1-.365-.961,1.374,1.374,0,0,1,1.066-.977,148.152,148.152,0,0,1,22.249-2.156,59.915,59.915,0,0,1,13.3,1.359,41.809,41.809,0,0,1,12.471,4.917,153.076,153.076,0,0,0-10.6-12.165c-2.3-2.363-4.217-4.228-6.046-5.869a.254.254,0,0,0-.041.024.19.19,0,0,1-.058.03c-8.261,2.67-17.05,5.277-25.7,5.277a33.607,33.607,0,0,1-17.228-4.4,1.1,1.1,0,0,1-.578-1.035,1.188,1.188,0,0,1,.752-1.013,49.448,49.448,0,0,1,19.18-3.533,119,119,0,0,1,21.017,2.367c-5.483-4.459-10.838-7.2-16.369-8.392-2.524.1-5.846.225-9.146.225a82.02,82.02,0,0,1-16.053-1.347,46.981,46.981,0,0,1-15.158-5.651,1.123,1.123,0,0,1-.576-1.065,1.159,1.159,0,0,1,.749-.981,32.62,32.62,0,0,1,12.226-2.309c10.3,0,20.248,4.41,29.558,8.926l.013.006,0,0,.013.007.283.136.049.024.235.114a1.049,1.049,0,0,1,.3.228,36.477,36.477,0,0,1,9.167,4.027,124.1,124.1,0,0,1-9.708-18.339,50.213,50.213,0,0,1-3.984-20.2,1.142,1.142,0,0,1,1.128-1.14,1.146,1.146,0,0,1,.729.269c5.525,4.526,9.311,10.547,11.575,18.407,2.056,7.139,2.613,14.78,3.007,21.994a1.007,1.007,0,0,1-.2.667,79.327,79.327,0,0,1,10.477,8.994c.334.331.671.679.968.986l.02.021q.268.277.537.553a.125.125,0,0,0,.015-.032.142.142,0,0,1,.016-.034c.052-.073.1-.151.144-.227l0,0c.041-.069.084-.14.13-.208a102.12,102.12,0,0,1-2.753-25.362,101.223,101.223,0,0,1,3.711-25.243,1.118,1.118,0,0,1,1.095-.844,1.1,1.1,0,0,1,1.052.75,83.625,83.625,0,0,1,5.088,26.75,54.546,54.546,0,0,1-1.441,13.8,35.08,35.08,0,0,1-5.377,12.082.435.435,0,0,1-.1.095l-.006,0c-.016.013-.033.026-.05.042a161.774,161.774,0,0,1,15.259,18.733c.01-.022.019-.045.027-.067a.486.486,0,0,1,.059-.124c.054-.076.1-.157.15-.235s.083-.138.128-.2a100.472,100.472,0,0,1,.958-50.6,1.118,1.118,0,0,1,1.095-.844,1.1,1.1,0,0,1,1.05.75,83.62,83.62,0,0,1,5.089,26.75,54.552,54.552,0,0,1-1.441,13.8,35.083,35.083,0,0,1-5.377,12.083.9.9,0,0,1-.589.384c1.484,2.176,2.743,4.094,3.85,5.862a1.029,1.029,0,0,1,.047,1.083A1.243,1.243,0,0,1-2025.811,3263.616Z" transform="translate(3525 -2282.652)" fill="#fff" stroke="rgba(0,0,0,0)" stroke-miterlimit="10" stroke-width="1"/>
  </g>
</svg>
