<svg xmlns="http://www.w3.org/2000/svg" xmlns:xlink="http://www.w3.org/1999/xlink" width="858.953" height="302.865" viewBox="0 0 858.953 302.865">
  <defs>
    <linearGradient id="linear-gradient" x1="0.5" x2="0.5" y2="1" gradientUnits="objectBoundingBox">
      <stop offset="0" stop-color="#57bddb"/>
      <stop offset="1" stop-color="#e598b2"/>
    </linearGradient>
  </defs>
  <g id="bg_1" transform="translate(-56.48 1)">
    <path id="Subtraction_1" data-name="Subtraction 1" d="M-1674.243,3965.364c-30.3,0-62.386-2.5-81.749-6.368-24.408-4.877-46.807-15.734-68.468-26.234-7.349-3.562-14.948-7.245-22.349-10.543-3.968-1.665-11.611-7.142-19.947-14.294a296.142,296.142,0,0,1-30.9-31.032c-18.955-21.978-43.381-56.507-52.109-96.2a136.043,136.043,0,0,1-3.258-28.522,119.329,119.329,0,0,1,3.457-29.2,122.332,122.332,0,0,1,11.543-29.354,150.5,150.5,0,0,1,21-28.993l.986-1.13h820.909c-.282,2.589-.577,5.19-.862,7.706l0,.026c-.8,7.107-1.637,14.457-2.227,21.73-1.608,19.8-3.388,37.451-8.906,53a70.743,70.743,0,0,1-11.872,21.674,58.7,58.7,0,0,1-9,8.821,63.508,63.508,0,0,1-11.5,7.17,42.338,42.338,0,0,1-18.926,4.441c-6.023,0-12.348-1.183-19.9-3.725-6.75-2.271-13.669-5.351-21-8.612-1.952-.869-3.97-1.767-6.024-2.667-16.573-7.258-36.3-15-60.68-15-3.5,0-7.077.161-10.618.479a220.243,220.243,0,0,0-34.9,6.068,258.675,258.675,0,0,0-33.088,11,313.284,313.284,0,0,0-31.016,14.735c-9.448,5.122-19.1,10.936-28.683,17.281-36.572,24.209-66.432,52.221-86.192,70.757-6.241,5.855-11.63,10.91-15.911,14.609-1.217,1.052-2.751,2.424-4.526,4.014l-.063.056c-4.46,3.994-10.569,9.463-18.053,15.6-8.828,7.24-17.63,13.794-26.162,19.481a233.526,233.526,0,0,1-32.266,18.188,153.335,153.335,0,0,1-36.366,11.719,206.134,206.134,0,0,1-22.7,2.514C-1654.95,3965.095-1664.263,3965.364-1674.243,3965.364Z" transform="translate(2010 -3664)" stroke="rgba(0,0,0,0)" stroke-miterlimit="10" stroke-width="1" opacity="0.5" fill="url(#linear-gradient)"/>
  </g>
</svg>
